<svg width="300" height="530" viewBox="0 0 300 530" fill="none" xmlns="http://www.w3.org/2000/svg">
<g clip-path="url(#clip0_1672_36740)">
<path d="M171.901 217.366C172.818 202.905 173.801 181.35 173.841 176.415C173.863 173.956 173.81 172.859 173.771 172.04L173.762 171.868C173.736 171.198 173.709 170.665 173.753 169.612C173.762 169.378 173.775 169.149 173.788 168.942C173.797 168.885 173.797 168.828 173.797 168.779C173.815 168.506 173.828 168.242 173.85 167.991L173.872 167.766C173.88 167.669 173.885 167.581 173.902 167.479C174.214 164.223 174.886 162.029 175.43 160.262L175.478 160.099C176.141 157.953 176.506 156.768 175.825 155.235C174.938 153.226 172.585 151.481 168.42 149.736C168.406 149.732 168.389 149.727 168.376 149.723C168.376 149.723 168.376 149.723 168.362 149.714C167.686 149.476 166.975 149.198 166.255 148.886C166.238 148.877 166.225 148.872 166.198 148.864C161.462 147.11 155.474 145.885 152.871 147.705C151.936 148.361 151.479 149.375 151.479 150.802C151.479 151.128 151.216 151.393 150.873 151.397C150.834 151.384 150.773 151.379 150.733 151.397C150.408 151.397 150.145 151.133 150.145 150.807C150.145 149.383 149.688 148.37 148.744 147.709C147.919 147.132 144.53 145.515 135.448 148.859L135.404 148.877L135.369 148.89C134.666 149.198 133.951 149.48 133.231 149.727H133.222C133.222 149.727 133.204 149.736 133.2 149.74C129.034 151.485 126.681 153.23 125.803 155.239C125.118 156.786 125.487 157.975 126.154 160.139C126.681 161.818 127.401 164.122 127.73 167.497C127.787 167.88 127.823 168.312 127.831 168.806C127.836 168.841 127.836 168.881 127.836 168.938C127.853 169.163 127.866 169.387 127.875 169.621C127.919 170.753 127.902 171.278 127.858 172.066C127.818 172.868 127.766 173.965 127.787 176.424C127.836 181.509 128.823 203.094 129.728 217.374C131.198 240.582 145.391 258.294 150.751 258.29C150.773 258.299 150.799 258.299 150.825 258.299C150.847 258.299 150.869 258.299 150.887 258.29C156.22 258.29 170.408 240.582 171.883 217.37L171.901 217.366ZM131.233 167.559C130.97 167.559 130.742 167.387 130.667 167.131C130.575 166.823 130.755 166.497 131.067 166.4C137.414 164.549 141.725 163.43 148.055 163.558C150.017 163.549 150.162 160.505 150.162 155.865C150.162 155.539 150.426 155.274 150.768 155.274C150.808 155.288 150.869 155.292 150.904 155.274C151.229 155.274 151.492 155.539 151.492 155.865C151.492 160.509 151.642 163.549 153.613 163.558C159.925 163.43 164.24 164.549 170.579 166.396C170.733 166.444 170.856 166.545 170.935 166.682C171.01 166.819 171.027 166.977 170.983 167.127C170.9 167.44 170.557 167.62 170.254 167.532C164.346 165.805 160.233 164.73 154.618 164.73C154.293 164.73 153.964 164.73 153.63 164.739C152.375 164.73 151.519 164.1 151.01 162.805C150.952 162.659 150.711 162.659 150.654 162.805C150.136 164.118 149.311 164.734 148.055 164.739C141.896 164.607 137.651 165.704 131.396 167.532C131.352 167.546 131.299 167.554 131.238 167.554L131.233 167.559ZM165.562 168.013C165.522 168.167 165.421 168.299 165.285 168.378C165.154 168.453 164.995 168.475 164.846 168.431L164.284 168.286C161.967 167.673 158.095 166.647 154.938 167.184C152.028 167.682 151.497 169.242 151.497 172.132C151.497 172.458 151.233 172.723 150.891 172.723C150.869 172.714 150.843 172.714 150.816 172.714C150.794 172.714 150.773 172.714 150.755 172.723C150.426 172.723 150.167 172.463 150.167 172.132C150.167 169.242 149.631 167.687 146.716 167.184C143.556 166.647 139.671 167.678 137.353 168.29L136.804 168.431C136.655 168.471 136.501 168.453 136.365 168.378C136.229 168.299 136.128 168.171 136.089 168.013C136.005 167.691 136.194 167.374 136.514 167.29L137.046 167.149C139.456 166.506 143.485 165.426 146.918 166.017C148.766 166.329 149.991 167.092 150.663 168.343C150.729 168.466 150.935 168.466 151.001 168.343C151.672 167.092 152.897 166.329 154.745 166.017C158.165 165.426 162.199 166.506 164.609 167.149L165.145 167.29C165.461 167.374 165.645 167.691 165.562 168.008V168.013ZM132.032 187.695C131.923 187.58 131.866 187.43 131.866 187.272C131.866 187.104 131.936 186.946 132.054 186.84C132.164 186.739 132.309 186.686 132.458 186.695L133.112 186.703C139.684 186.814 145.891 186.919 149.034 185.13C149.987 184.593 150.171 183.372 150.228 182.231C150.197 181.566 150.215 180.848 150.237 180.16L150.215 179.438C150.175 178.517 150.158 177.75 150.158 177.028C150.158 176.701 150.421 176.437 150.764 176.437C150.803 176.45 150.86 176.45 150.9 176.437C151.225 176.437 151.488 176.701 151.488 177.028C151.488 177.891 151.453 178.75 151.427 179.46C151.418 179.658 151.413 179.847 151.413 180.046C151.435 180.786 151.453 181.57 151.413 182.319C151.501 183.866 151.861 184.703 152.607 185.126C155.751 186.915 161.958 186.809 168.525 186.699L169.192 186.69C169.337 186.681 169.473 186.73 169.583 186.831C169.706 186.941 169.776 187.104 169.78 187.263C169.78 187.589 169.517 187.862 169.197 187.871L168.551 187.88C167.226 187.906 165.496 187.933 163.854 187.933C159.341 187.933 154.78 187.717 152.024 186.153C151.589 185.901 151.238 185.571 150.974 185.174C150.939 185.122 150.878 185.086 150.816 185.086C150.751 185.086 150.689 185.122 150.658 185.174C150.408 185.571 150.07 185.893 149.618 186.153C146.866 187.721 142.305 187.937 137.787 187.937C136.141 187.937 134.416 187.906 133.099 187.884L132.445 187.875C132.291 187.875 132.142 187.809 132.032 187.695ZM165.579 189.607C165.557 189.77 165.474 189.915 165.347 190.012C165.228 190.105 165.079 190.14 164.925 190.118L164.846 190.109C162.414 189.827 158.341 189.356 154.767 189.413C151.988 189.444 151.492 190.885 151.492 194.916C151.492 195.242 151.229 195.507 150.887 195.507C150.865 195.498 150.838 195.494 150.812 195.494C150.79 195.494 150.768 195.494 150.751 195.502C150.426 195.502 150.162 195.238 150.162 194.912C150.162 190.88 149.666 189.44 146.879 189.409C143.323 189.356 139.262 189.823 136.835 190.101L136.716 190.114C136.396 190.153 136.106 189.924 136.067 189.603C136.032 189.277 136.264 188.981 136.585 188.946C139.06 188.655 143.2 188.175 146.896 188.228C148.762 188.254 149.991 188.898 150.658 190.189C150.724 190.316 150.931 190.316 150.996 190.189C151.664 188.898 152.893 188.254 154.758 188.228C158.507 188.179 162.77 188.677 165.066 188.946C165.386 188.981 165.619 189.277 165.584 189.598L165.579 189.607ZM132.691 208.681C132.586 208.567 132.528 208.417 132.533 208.263C132.537 208.1 132.612 207.945 132.73 207.835C132.84 207.734 132.989 207.685 133.139 207.694C135.377 207.774 136.997 207.884 138.428 207.976L138.854 208.003C141.163 208.174 143.161 208.32 146.988 208.205C149.6 208.016 150.158 207.315 150.158 200.323C150.158 199.997 150.421 199.732 150.764 199.728C150.803 199.741 150.865 199.746 150.904 199.728C151.229 199.728 151.492 199.992 151.492 200.318C151.492 207.641 152.208 208.02 154.701 208.21C158.485 208.315 160.478 208.166 162.787 207.998L163.213 207.967C164.644 207.87 166.264 207.76 168.512 207.681C168.652 207.668 168.793 207.716 168.907 207.818C169.034 207.928 169.109 208.086 169.113 208.249C169.118 208.404 169.06 208.553 168.955 208.668C168.845 208.783 168.7 208.849 168.542 208.857C166.111 208.95 164.407 209.069 162.871 209.179C161.036 209.307 159.456 209.421 157.125 209.421C156.216 209.421 155.426 209.408 154.636 209.382C152.638 209.232 151.585 208.611 151.01 207.245C150.979 207.174 150.909 207.126 150.834 207.126C150.759 207.126 150.689 207.17 150.658 207.24C150.075 208.606 149.025 209.228 147.046 209.377C146.238 209.404 145.43 209.417 144.513 209.417C142.177 209.417 140.522 209.298 138.775 209.175C137.239 209.065 135.531 208.946 133.104 208.853C132.945 208.849 132.801 208.783 132.695 208.668L132.691 208.681ZM151.492 252.566C151.492 252.892 151.229 253.157 150.904 253.157H150.751C150.426 253.157 150.162 252.892 150.162 252.566V222.992C150.162 222.662 150.421 222.402 150.751 222.402H150.904C151.229 222.402 151.492 222.666 151.492 222.992V252.566ZM151.418 216.348C151.409 216.383 151.409 216.423 151.418 216.462C151.44 216.974 151.44 217.489 151.44 217.987V218.331C151.44 218.657 151.176 218.921 150.852 218.921H150.799C150.474 218.921 150.211 218.657 150.211 218.331V217.987C150.211 217.48 150.211 216.96 150.233 216.432V216.383C150.154 214.444 149.816 213.092 148.415 212.77C146.119 212.25 139.798 211.62 137.019 211.62C136.892 211.62 136.773 211.62 136.659 211.62C136.523 211.633 136.383 211.58 136.269 211.479C136.146 211.365 136.071 211.206 136.071 211.043C136.071 210.884 136.128 210.734 136.233 210.62C136.343 210.505 136.488 210.444 136.646 210.439C139.355 210.382 146.216 211.056 148.674 211.616C149.565 211.823 150.219 212.285 150.667 213.03C150.702 213.087 150.764 213.123 150.83 213.123C150.895 213.123 150.961 213.087 150.992 213.03C151.431 212.285 152.076 211.827 152.972 211.616C155.408 211.06 162.274 210.391 165.009 210.439C165.167 210.439 165.312 210.505 165.421 210.62C165.527 210.734 165.584 210.88 165.579 211.038C165.579 211.201 165.505 211.356 165.386 211.466C165.281 211.563 165.149 211.616 165.013 211.616C165 211.616 164.991 211.616 164.978 211.616C162.454 211.55 155.663 212.21 153.24 212.761C151.844 213.083 151.497 214.422 151.418 216.343V216.348Z" fill="white"/>
<path d="M125.338 179.689L125.325 179.764L125.329 179.759L125.316 179.83L125.308 179.877C124.093 186.673 122.72 194.365 123.771 201.512C125.935 216.348 120.812 223.107 118.507 225.323C116.229 227.513 112.656 228.791 109.096 228.791C108.27 228.791 107.449 228.72 106.642 228.579C106.541 228.562 106.47 228.469 106.484 228.368C107.054 223.724 107.515 219.476 107.783 216.405C107.967 214.224 108.257 212.039 108.569 209.725L108.582 209.615L108.583 209.609C109.719 201.099 110.894 192.302 106.628 183.787C97.8839 166.88 95.6539 156.231 95.2939 154.27V154.226C95.2939 154.204 95.2939 154.186 95.3027 154.164C95.8032 152.701 96.1851 151.155 96.4485 149.573C96.8479 147.07 97.7698 141.281 95.869 136.923C95.8339 136.839 95.8602 136.742 95.9349 136.689C96.0095 136.637 96.1105 136.645 96.1763 136.707C97.2386 137.716 98.1737 138.813 98.9507 139.752C99.4818 140.391 99.934 140.902 100.369 141.351C100.375 141.357 100.381 141.364 100.387 141.372C100.395 141.381 100.403 141.39 100.412 141.4C100.412 141.404 100.443 141.435 100.443 141.435C105.015 146.56 110.381 151.198 115.119 155.295L115.167 155.336L115.228 155.393L115.236 155.4C121.119 160.491 126.198 164.886 126.571 167.647C126.584 167.709 126.592 167.795 126.601 167.878L126.602 167.894V167.946C126.611 167.969 126.62 168.035 126.62 168.11C126.637 168.228 126.646 168.369 126.655 168.519L126.668 168.775C126.677 168.81 126.677 168.845 126.677 168.876C126.769 171.67 126.106 175.384 125.338 179.689Z" fill="white"/>
<path d="M205.461 136.725C205.527 136.663 205.627 136.654 205.702 136.707L205.706 136.711C205.781 136.764 205.807 136.861 205.772 136.945C203.88 141.294 204.798 147.07 205.193 149.538L205.202 149.582C205.465 151.163 205.847 152.71 206.347 154.173C206.356 154.19 206.356 154.213 206.356 154.235V154.279C205.851 157.041 203.542 167.338 195.022 183.804C190.755 192.308 191.931 201.111 193.077 209.62V209.664C193.419 212.175 193.696 214.268 193.88 216.41C194.131 219.401 194.591 223.653 195.171 228.372C195.184 228.474 195.114 228.566 195.013 228.584C194.21 228.725 193.384 228.791 192.563 228.791C189.003 228.791 185.426 227.513 183.147 225.323C180.843 223.102 175.72 216.343 177.884 201.512C178.942 194.3 177.555 186.576 176.325 179.764L176.312 179.68C175.544 175.38 174.881 171.665 174.973 168.872C174.973 168.854 174.973 168.823 174.982 168.788C174.982 168.757 174.987 168.718 174.995 168.678C175.013 168.343 175.044 167.999 175.074 167.66C175.074 167.651 175.074 167.625 175.088 167.585C175.535 164.815 180.607 160.428 186.478 155.35L186.543 155.293C191.269 151.208 196.613 146.59 201.203 141.439L201.233 141.404C201.246 141.386 201.264 141.369 201.277 141.355C201.756 140.858 202.23 140.32 202.691 139.756C203.52 138.751 204.429 137.69 205.461 136.725Z" fill="white"/>
<path d="M62.4759 185.615C65.2283 185.615 68.2441 184.536 71.1984 182.496V182.491C71.2775 182.438 71.3784 182.451 71.4443 182.518C71.5101 182.584 71.5189 182.689 71.4618 182.764C69.7015 185.161 67.5417 188.109 66.475 189.66C64.4105 192.991 63.263 195.413 62.2533 197.545L62.2169 197.622L62.2156 197.624C60.4469 201.351 58.7783 204.867 53.0027 212.118C47.6734 218.784 44.0343 221.574 40.18 224.526L40.1533 224.546C37.396 226.655 34.5407 228.838 30.9483 232.611C30.9395 232.62 30.9307 232.629 30.9175 232.637C30.2152 233.567 28.9158 235.356 27.972 237.136C27.95 237.176 27.9193 237.206 27.8754 237.224C26.5453 237.766 25.2239 238.035 24.0036 238.035C22.9105 238.035 21.8965 237.819 21.0273 237.383C18.9246 236.338 17.2959 233.805 16.778 230.774C16.7736 230.734 16.778 230.694 16.7955 230.659C17.1555 229.892 17.5593 229.099 17.9939 228.302C19.5787 224.865 21.4355 220.269 23.5251 215.061L23.5734 214.938C28.4022 202.94 34.4118 188.012 40.281 180.923C43.7533 176.728 46.2687 174.084 48.108 172.154L48.187 172.071C50.777 169.352 52.1993 167.858 53.2924 165.206C53.3359 165.102 53.3789 164.999 53.4219 164.897C53.4956 164.72 53.5685 164.544 53.6436 164.369L53.6919 164.259C53.7314 164.166 53.8323 164.122 53.9289 164.153C54.0255 164.184 54.0782 164.285 54.0562 164.382C50.799 177.785 54.6137 182.83 58.3846 184.703C59.6049 185.307 60.979 185.615 62.4759 185.615Z" fill="white"/>
<path d="M283.683 228.368C284.144 229.2 284.525 229.958 284.846 230.659C284.859 230.694 284.864 230.729 284.859 230.769C284.359 233.796 282.734 236.33 280.623 237.387C279.758 237.823 278.74 238.039 277.647 238.039C276.422 238.039 275.096 237.77 273.77 237.233C273.731 237.215 273.696 237.184 273.674 237.145C272.73 235.365 271.431 233.571 270.737 232.664C270.733 232.659 270.725 232.65 270.717 232.639C270.709 232.629 270.702 232.62 270.698 232.615C267.089 228.83 264.231 226.645 261.466 224.53L261.44 224.51C257.595 221.561 253.956 218.769 248.648 212.118C242.84 204.843 241.185 201.336 239.433 197.622L239.372 197.49L239.368 197.482C238.303 195.242 237.201 192.926 235.145 189.616C234.236 188.303 232.475 185.871 230.197 182.769C230.145 182.694 230.149 182.588 230.215 182.522C230.281 182.451 230.386 182.443 230.461 182.495C233.406 184.535 236.418 185.615 239.174 185.615C240.667 185.615 242.045 185.307 243.266 184.703C247.037 182.835 250.847 177.803 247.616 164.421C247.59 164.325 247.647 164.223 247.743 164.192C247.84 164.157 247.945 164.21 247.98 164.303L247.982 164.306C248.051 164.477 248.121 164.648 248.195 164.818C248.252 164.946 248.305 165.074 248.358 165.201C249.464 167.88 250.882 169.37 253.463 172.075L253.621 172.242L253.685 172.309C255.506 174.225 257.993 176.842 261.374 180.927C267.26 188.038 273.283 203.024 278.121 215.061L278.222 215.312C280.193 220.212 282.054 224.838 283.683 228.368Z" fill="white"/>
<path d="M94.372 153.217C94.3589 153.261 94.3281 153.3 94.2886 153.323V153.318C94.2008 153.371 94.1262 153.459 94.0779 153.578C92.2864 157.988 89.2316 160.748 87.2074 162.577L87.1947 162.589C86.9181 162.835 86.6679 163.06 86.4528 163.272C85.588 164.073 82.1113 168.502 76.9182 175.415C71.4923 182.068 66.3738 184.43 62.4976 184.43C61.128 184.43 59.9164 184.135 58.9024 183.632C54.7277 181.57 49.4292 174.318 60.8471 148.912C60.8471 148.908 60.8822 148.837 60.8822 148.837C64.653 141.686 66.7909 139.434 68.0683 138.091L68.1956 137.958C68.3931 137.751 68.5731 137.557 68.7399 137.359C68.7531 137.346 68.7663 137.333 68.7794 137.324C70.0876 136.447 71.4923 135.663 72.9629 135.002C74.157 134.464 75.3861 134.01 76.6109 133.654C76.6723 133.64 76.7074 133.632 76.7338 133.618C78.1561 133.209 79.6003 132.913 81.0577 132.733C81.128 132.733 81.1763 132.728 81.2246 132.715C82.0077 132.627 82.6117 132.605 82.9721 132.592H82.9761C86.6416 132.482 90.1008 132.38 92.6293 134.451C97.0981 138.099 95.7812 146.29 95.2851 149.37L95.0964 149.348L95.2851 149.379C95.0788 150.674 94.7715 151.965 94.372 153.217Z" fill="white"/>
<path d="M240.768 148.846C252.225 174.309 246.927 181.575 242.748 183.641L242.757 183.646C241.738 184.152 240.522 184.447 239.152 184.447C235.294 184.447 230.197 182.099 224.789 175.49C224.776 175.477 224.767 175.463 224.763 175.45C219.552 168.528 216.075 164.095 215.202 163.28C214.982 163.078 214.736 162.853 214.464 162.611C212.436 160.786 209.381 158.024 207.577 153.591C207.528 153.477 207.449 153.38 207.353 153.318C207.313 153.296 207.287 153.261 207.274 153.217C206.874 151.961 206.567 150.674 206.365 149.392L206.364 149.386C205.867 146.289 204.555 138.106 209.021 134.46C211.556 132.386 215.012 132.49 218.666 132.6H218.674C219.038 132.614 219.644 132.64 220.404 132.719C220.457 132.73 220.5 132.733 220.538 132.735C220.564 132.737 220.587 132.738 220.61 132.741C222.019 132.913 223.459 133.209 224.894 133.614C224.96 133.64 224.987 133.649 225.017 133.654C226.268 134.015 227.498 134.469 228.692 135.006C230.162 135.667 231.571 136.451 232.875 137.328L232.882 137.333C232.896 137.344 232.907 137.352 232.915 137.363C233.046 137.518 233.182 137.668 233.327 137.822C233.411 137.91 233.498 138.006 233.586 138.103L233.586 138.104L233.596 138.114C234.866 139.446 236.998 141.682 240.768 148.846Z" fill="white"/>
<path d="M70.3071 135.015C70.2808 135.033 70.2456 135.041 70.2149 135.041H70.2061C70.1622 135.041 70.1227 135.028 70.0876 135.002C70.0305 134.953 69.9998 134.874 70.0218 134.799C72.4362 125.626 73.7882 122.303 74.6837 120.105L74.7 120.064C75.1486 118.947 75.4998 118.073 75.8251 116.923C78.2878 108.856 84.293 98.7394 98.9331 96.3689C99.2623 96.3116 99.4993 96.2675 99.631 96.2367L99.8286 96.1838C99.9721 96.1477 100.135 96.1062 100.312 96.0609C100.526 96.0067 100.76 95.9467 101.009 95.8842C101.29 95.8093 101.562 95.7392 101.833 95.6687L101.835 95.6683L102.3 95.5493C102.318 95.5449 102.331 95.5449 102.348 95.5449C110.083 93.9851 118.209 95.9987 122.361 97.3382C122.436 97.3602 122.493 97.4351 122.493 97.5144C122.498 97.5982 122.445 97.6687 122.37 97.6995C120.597 98.3736 117.998 99.4884 115.693 100.96C110.818 104.069 108.742 106.822 105.869 110.631L105.865 110.636C104.526 112.425 103.029 114.421 100.944 116.875L100.934 116.886C98.757 119.446 94.236 124.763 88.5029 128.675C86.9664 129.719 84.3808 130.71 81.027 131.543H81.0182C80.9963 131.552 80.97 131.556 80.9524 131.556C79.4599 131.728 77.919 132.041 76.3914 132.486C76.3839 132.488 76.3769 132.489 76.3707 132.491C76.3273 132.5 76.304 132.506 76.2772 132.521C74.9515 132.909 73.6829 133.376 72.4757 133.918C71.7162 134.266 70.9875 134.632 70.3071 135.015Z" fill="white"/>
<path d="M179.157 97.5188C179.157 97.4395 179.209 97.369 179.288 97.3426L179.284 97.3514C183.428 96.0119 191.545 93.9939 199.31 95.5625C199.418 95.5907 199.525 95.6176 199.631 95.6449C199.792 95.6863 199.952 95.7273 200.114 95.7696L200.632 95.9018L200.872 95.9626C201.33 96.078 201.729 96.1789 202.01 96.2543C202.137 96.2807 202.374 96.3292 202.704 96.3821C217.335 98.7481 223.345 108.851 225.812 116.91C226.137 118.092 226.489 118.967 226.93 120.065L226.944 120.1C227.849 122.321 229.205 125.652 231.619 134.808C231.641 134.883 231.615 134.962 231.554 135.011C231.518 135.037 231.474 135.05 231.435 135.05C231.404 135.05 231.374 135.041 231.343 135.024C230.654 134.636 229.925 134.266 229.17 133.927C225.763 132.393 222.66 131.79 220.654 131.556C217.287 130.732 214.697 129.741 213.138 128.675C207.388 124.755 202.872 119.435 200.695 116.87L200.684 116.857C198.551 114.337 196.957 112.218 195.799 110.667L195.75 110.605C192.888 106.807 190.82 104.066 185.957 100.964C183.652 99.5016 181.053 98.3824 179.28 97.7039C179.205 97.6731 179.157 97.5981 179.157 97.5188Z" fill="white"/>
<path d="M176.979 96.8844C176.957 96.8844 176.918 96.8755 176.918 96.8755V96.8711C172.058 95.2144 169.591 93.5489 169.591 89.0282V79.9119C169.591 79.837 169.635 79.7665 169.705 79.7357C169.776 79.7048 169.855 79.7181 169.912 79.7709C171.246 81.0135 173.727 83.2165 175.355 84.0361C176.624 84.6816 180.028 86.1153 183.075 87.3984L183.23 87.464L184.201 87.8738C184.468 87.9871 184.734 88.0998 184.995 88.2104C186.662 88.9159 188.149 89.5459 188.863 89.8698C190.162 90.469 191.971 91.8658 193.564 93.1259L193.669 93.2096C193.718 93.2484 193.765 93.2854 193.811 93.3216C193.87 93.3674 193.927 93.4119 193.981 93.4564C194.038 93.5093 194.065 93.5974 194.038 93.6723C194.012 93.7516 193.937 93.8001 193.858 93.8001C193.661 93.7957 193.468 93.7957 193.27 93.7957C185.382 93.7957 178.397 96.3468 177.05 96.8711C177.028 96.8844 177.001 96.8844 176.979 96.8844Z" fill="white"/>
<path d="M124.605 96.8756C123.226 96.338 115.926 93.6679 107.787 93.8045V93.8089C107.7 93.8089 107.629 93.7604 107.603 93.6811C107.577 93.6018 107.603 93.5181 107.664 93.4652C107.682 93.4511 107.7 93.4366 107.718 93.4221C107.795 93.359 107.878 93.2907 107.967 93.2229L108.077 93.1348L108.078 93.1339C109.408 92.0852 111.414 90.5043 112.779 89.8786C113.599 89.5085 115.452 88.7242 117.414 87.8959L118.415 87.4729L118.576 87.4055C121.621 86.1224 125.022 84.69 126.299 84.0449C127.836 83.2738 130.101 81.2999 131.734 79.7798C131.791 79.7269 131.87 79.7137 131.94 79.7445C132.01 79.7754 132.054 79.8459 132.054 79.9208V89.0371C132.054 93.5534 129.587 95.2189 124.736 96.88C124.719 96.8888 124.697 96.8888 124.675 96.8888C124.649 96.8888 124.627 96.8844 124.605 96.8756Z" fill="white"/>
<path d="M125.023 98.0352C125.043 98.0291 125.063 98.0229 125.083 98.0167H125.079L125.162 97.9903C127.287 97.3602 131.198 96.2058 138.099 96.8623C150.022 98.0035 150.158 105.582 150.158 105.904V127.771C150.158 132.151 148.643 136.355 145.895 139.606C142.871 143.175 139.188 145.929 134.951 147.788C134.948 147.79 134.942 147.792 134.936 147.794C134.922 147.8 134.901 147.809 134.877 147.815C134.087 148.114 133.441 148.366 132.853 148.612C132.844 148.617 132.831 148.626 132.831 148.626H132.818C129.745 149.687 126.554 150.203 123.371 150.203C115.386 150.203 107.463 146.96 101.615 140.968C101.585 140.941 101.558 140.915 101.536 140.884L101.514 140.862C101.493 140.839 101.473 140.816 101.452 140.794C101.382 140.718 101.315 140.645 101.251 140.567C101.225 140.532 101.198 140.509 101.176 140.492C101.154 140.479 101.137 140.465 101.124 140.452C100.702 139.998 100.276 139.514 99.855 138.998C96.9182 135.416 93.2307 131.574 86.6855 131.371C86.5977 131.367 86.5231 131.301 86.5055 131.213C86.488 131.124 86.5363 131.036 86.6197 131.001C87.5986 130.587 88.4546 130.133 89.1658 129.648C95.0657 125.634 99.6574 120.224 101.865 117.62C103.804 115.334 105.248 113.422 106.521 111.737L106.611 111.618L106.791 111.376L106.8 111.365C109.701 107.502 111.616 104.953 116.326 101.956C119.148 100.154 122.555 98.8539 124.333 98.2415C124.35 98.2326 124.372 98.2282 124.398 98.2194L124.653 98.1401C124.679 98.1269 124.697 98.1181 124.723 98.1181C124.732 98.1154 124.739 98.1128 124.748 98.111C124.753 98.1097 124.758 98.1093 124.763 98.1093C124.768 98.1079 124.775 98.1053 124.781 98.1031C124.795 98.0978 124.811 98.0916 124.829 98.0916C124.893 98.0749 124.957 98.0551 125.023 98.0352Z" fill="white"/>
<path d="M166.769 147.815C166.729 147.806 166.685 147.784 166.685 147.784H166.677C162.454 145.929 158.771 143.175 155.742 139.606C152.998 136.363 151.488 132.16 151.488 127.771V105.89C151.483 105.89 151.466 103.621 153.332 101.339C155.39 98.823 158.828 97.3162 163.547 96.8667C170.437 96.2058 174.348 97.3642 176.447 97.9854L176.448 97.9859L176.567 98.0211C176.655 98.052 176.742 98.0784 176.826 98.1004C176.843 98.1004 176.865 98.1093 176.892 98.1181C176.896 98.1181 176.936 98.1313 176.936 98.1313C176.953 98.1357 176.971 98.1401 176.993 98.1489C177.001 98.1533 177.041 98.1665 177.05 98.1665C177.098 98.1842 177.142 98.1974 177.19 98.2106L177.252 98.2326C177.268 98.2375 177.283 98.2428 177.298 98.2481C177.325 98.2577 177.351 98.2666 177.379 98.2723C179.157 98.8891 182.528 100.185 185.316 101.965C190.029 104.96 191.948 107.515 194.848 111.377L194.85 111.381L195.039 111.632C196.334 113.346 197.8 115.284 199.802 117.646C202.028 120.268 206.615 125.665 212.475 129.653C213.187 130.137 214.043 130.591 215.022 131.005C215.105 131.041 215.153 131.129 215.136 131.217C215.123 131.309 215.044 131.376 214.956 131.376C208.406 131.574 204.723 135.416 201.782 139.003C201.4 139.478 200.996 139.928 200.513 140.457C200.513 140.461 200.504 140.47 200.504 140.47C200.5 140.474 200.493 140.48 200.487 140.485C200.48 140.491 200.474 140.496 200.469 140.501C200.443 140.518 200.425 140.531 200.403 140.562L200.307 140.672C200.285 140.696 200.263 140.72 200.242 140.743C200.199 140.79 200.156 140.837 200.109 140.884C200.114 140.888 200.079 140.924 200.048 140.954C194.205 146.951 186.268 150.199 178.279 150.199C175.096 150.199 171.9 149.683 168.828 148.617H168.81C168.808 148.615 168.806 148.614 168.804 148.613C168.8 148.612 168.795 148.612 168.792 148.612C168.059 148.308 167.326 148.026 166.769 147.815Z" fill="white"/>
<path d="M204.666 350.294L204.604 350.612L204.591 350.607C203.235 357.556 201.953 364.112 198.652 365.755C197.3 366.43 195.627 366.262 193.542 365.24C192.62 364.786 191.821 364.716 191.167 365.028C189.846 365.663 189.411 367.571 188.862 369.99L188.861 369.998C187.917 374.138 186.848 378.828 181.29 378.925H181.171C171.163 378.925 167.958 356.577 167.927 356.353C167.923 356.322 167.919 356.295 167.91 356.273C167.897 356.247 167.897 356.225 167.897 356.199C167.611 354.079 167.278 351.977 166.909 349.955V349.889L166.891 349.818C166.878 349.744 166.865 349.669 166.843 349.594C166.681 348.699 166.501 347.743 166.264 346.571L166.237 346.439C166.207 346.298 166.176 346.144 166.15 345.994C163.696 332.207 164.956 330.669 167.717 327.303L167.719 327.3C170.559 323.846 174.847 318.631 178.542 298.588C179.546 293.134 180.254 286.665 181.005 279.819L181.018 279.699L181.03 279.588C183.171 260.182 185.597 238.199 195.263 231.426C195.32 231.386 195.39 231.382 195.452 231.408C195.513 231.434 195.557 231.492 195.566 231.558C196.878 241.767 198.235 250.368 199.016 253.474L199.06 253.633C199.114 253.828 199.18 254.08 199.255 254.371L199.284 254.483C203.191 269.288 211.624 307.819 205.583 345.778V345.787C205.258 347.289 204.955 348.818 204.666 350.294Z" fill="#1570EF"/>
<path d="M120.619 279.699C121.33 286.238 122.072 292.997 123.094 298.588H123.09C126.786 318.636 131.075 323.849 133.915 327.299L133.918 327.302C136.677 330.661 137.94 332.199 135.482 345.994C135.46 346.139 135.43 346.285 135.399 346.43C135.395 346.479 135.386 346.514 135.377 346.545C135.201 347.417 135.03 348.29 134.881 349.149L134.811 349.479C134.784 349.607 134.758 349.739 134.732 349.871C134.727 349.907 134.719 349.951 134.719 349.99C134.345 352.066 134.016 354.145 133.735 356.199C133.735 356.215 133.734 356.231 133.73 356.247C133.728 356.256 133.726 356.265 133.722 356.273C133.719 356.287 133.716 356.304 133.711 356.329C133.709 356.337 133.707 356.347 133.705 356.357C133.7 356.41 132.892 362.063 130.842 367.681C128.16 375.039 124.569 378.925 120.461 378.925H120.351C114.792 378.828 113.723 374.145 112.78 370.009L112.778 370.003L112.761 369.924C112.212 367.54 111.777 365.654 110.465 365.028C109.798 364.716 108.999 364.786 108.09 365.24C106 366.262 104.328 366.43 102.976 365.755C99.6752 364.112 98.3934 357.558 97.0374 350.624L97.0365 350.62L97.0058 350.466L96.9579 350.223C96.6612 348.722 96.3556 347.176 96.0268 345.65C90.0435 307.771 98.4588 269.274 102.353 254.479C102.427 254.205 102.489 253.967 102.541 253.769L102.62 253.47C103.402 250.372 104.758 241.776 106.071 231.567C106.079 231.501 106.123 231.443 106.185 231.417C106.246 231.39 106.321 231.395 106.374 231.434C116.04 238.199 118.465 260.18 120.607 279.586L120.61 279.616L120.619 279.699Z" fill="#1570EF"/>
<path d="M96.7513 389.284C96.9795 388.65 97.1595 388.134 97.2912 387.711C99.5827 388.412 100.75 389.8 102.559 393.029C102.257 398.323 101.269 406.413 100.407 413.467C100.205 415.12 100.01 416.716 99.8329 418.206C99.1788 423.7 96.8171 430.57 91.6942 434.676C91.6406 434.722 91.5853 434.766 91.5304 434.806C91.4909 434.834 91.4519 434.862 91.4132 434.888C89.2447 410.469 94.552 395.466 96.7513 389.284Z" fill="white"/>
<path d="M199.091 393.029C200.899 389.8 202.067 388.416 204.359 387.711C204.495 388.134 204.67 388.65 204.899 389.284C207.093 395.466 212.405 410.469 210.237 434.888C210.144 434.826 210.048 434.755 209.956 434.676C204.833 430.565 202.471 423.7 201.817 418.206C201.64 416.716 201.445 415.12 201.243 413.468C200.381 406.414 199.393 398.323 199.091 393.029Z" fill="white"/>
<path d="M187.266 399.029C186.957 398.959 186.639 398.875 186.33 398.771V398.762C184.161 398.074 182.028 396.735 180.061 394.84C180.333 397.008 179.982 400.749 178.937 410.05C176.256 429.592 178.142 432.239 179.964 434.794L179.965 434.795L179.995 434.838C180.662 435.781 181.35 436.755 181.835 438.408C181.852 438.461 181.865 438.518 181.887 438.571L182.216 438.305C186.691 434.692 190.533 431.589 189.925 421.898C189.549 415.912 188.586 408.812 187.805 403.051L187.803 403.04C187.609 401.607 187.426 400.258 187.266 399.029Z" fill="white"/>
<path d="M121.589 394.845C119.626 396.739 117.489 398.074 115.32 398.766V398.775C115.008 398.876 114.688 398.964 114.376 399.035C114.216 400.267 114.032 401.622 113.837 403.06L113.836 403.064C113.055 408.825 112.092 415.926 111.716 421.912C111.108 431.602 114.95 434.705 119.425 438.319C119.534 438.407 119.644 438.495 119.754 438.584C119.758 438.574 119.763 438.563 119.766 438.552C119.773 438.536 119.778 438.519 119.784 438.502C119.792 438.475 119.8 438.448 119.806 438.421C120.293 436.756 120.986 435.781 121.655 434.838L121.676 434.808C123.503 432.248 125.386 429.605 122.704 410.064C121.659 400.762 121.308 397.021 121.58 394.854L121.589 394.845Z" fill="white"/>
<path d="M153.613 163.364C159.965 163.241 164.28 164.36 170.636 166.219H170.632C171.045 166.338 171.282 166.774 171.163 167.189C171.066 167.532 170.755 167.753 170.417 167.753C170.342 167.753 170.268 167.744 170.197 167.722C163.981 165.906 159.754 164.809 153.621 164.933C152.173 164.924 151.321 164.131 150.825 162.884C150.329 164.131 149.486 164.928 148.042 164.933C141.892 164.809 137.664 165.906 131.448 167.722C131.374 167.744 131.299 167.753 131.229 167.753C130.891 167.753 130.584 167.532 130.483 167.189C130.364 166.774 130.601 166.338 131.014 166.219C137.37 164.36 141.685 163.241 148.055 163.364C149.829 163.36 149.965 160.39 149.965 155.865C149.965 155.433 150.316 155.081 150.746 155.081C150.755 155.081 150.764 155.081 150.774 155.083L150.785 155.085L150.787 155.085C150.793 155.086 150.798 155.087 150.804 155.088C150.811 155.088 150.818 155.089 150.825 155.089C150.851 155.085 150.878 155.081 150.904 155.081C151.339 155.081 151.685 155.433 151.685 155.865C151.685 160.39 151.817 163.36 153.613 163.364Z" fill="#0D173D"/>
<path d="M137.406 168.475L136.852 168.621H136.866C136.453 168.731 136.023 168.48 135.917 168.061C135.808 167.647 136.058 167.219 136.475 167.109L137.019 166.964C139.447 166.321 143.507 165.246 146.958 165.836C149.078 166.197 150.224 167.109 150.838 168.264C151.453 167.109 152.599 166.197 154.719 165.836C158.173 165.246 162.229 166.32 164.657 166.963L164.658 166.964L165.202 167.109C165.619 167.215 165.865 167.642 165.759 168.061C165.654 168.48 165.224 168.726 164.811 168.621L164.258 168.475C161.953 167.863 158.095 166.841 154.978 167.374C152.182 167.854 151.69 169.29 151.69 172.128C151.69 172.56 151.339 172.912 150.909 172.912C150.882 172.912 150.856 172.903 150.83 172.903C150.803 172.908 150.777 172.912 150.751 172.912C150.316 172.912 149.969 172.56 149.969 172.128C149.969 169.286 149.478 167.85 146.686 167.374C143.564 166.841 139.71 167.863 137.406 168.475Z" fill="#0D173D"/>
<path d="M146.874 189.607C143.283 189.563 139.187 190.034 136.742 190.316H136.751C136.317 190.374 135.935 190.056 135.886 189.629C135.838 189.197 136.145 188.81 136.571 188.761C139.051 188.475 143.222 187.999 146.9 188.043C149.065 188.074 150.215 188.911 150.829 190.109C151.444 188.911 152.594 188.074 154.758 188.043C158.45 187.999 162.603 188.475 165.087 188.761C165.513 188.81 165.82 189.202 165.772 189.629C165.724 190.056 165.342 190.374 164.907 190.316L164.881 190.313H164.881C162.432 190.031 158.375 189.563 154.776 189.607C152.133 189.642 151.685 190.964 151.685 194.921C151.685 195.353 151.334 195.705 150.904 195.705C150.891 195.705 150.878 195.703 150.864 195.701C150.858 195.7 150.852 195.699 150.846 195.698C150.839 195.697 150.832 195.696 150.825 195.696C150.799 195.701 150.772 195.705 150.746 195.705C150.311 195.705 149.964 195.353 149.964 194.921C149.964 190.964 149.521 189.642 146.874 189.607Z" fill="#0D173D"/>
<path d="M150.904 222.208H150.746C150.316 222.208 149.965 222.56 149.965 222.992V252.571C149.965 253.002 150.312 253.355 150.746 253.355H150.904C151.334 253.355 151.686 253.002 151.686 252.571V222.992C151.686 222.56 151.339 222.208 150.904 222.208Z" fill="#0D173D"/>
<path d="M169.197 186.501H169.183L168.538 186.51L168.473 186.51C161.943 186.616 155.793 186.715 152.704 184.959C151.949 184.531 151.677 183.624 151.607 182.258C151.642 181.588 151.629 180.87 151.607 180.121C151.611 179.923 151.618 179.726 151.626 179.519L151.629 179.446L151.636 179.236C151.66 178.529 151.686 177.793 151.686 177.032C151.686 176.6 151.339 176.248 150.904 176.248C150.878 176.248 150.852 176.252 150.825 176.256C150.818 176.256 150.81 176.256 150.802 176.255C150.799 176.254 150.795 176.254 150.792 176.253L150.786 176.252C150.773 176.25 150.759 176.248 150.746 176.248C150.316 176.248 149.965 176.6 149.965 177.032C149.965 177.869 149.991 178.675 150.022 179.446L150.024 179.499C150.032 179.714 150.04 179.921 150.044 180.121C150.022 180.87 150.009 181.588 150.044 182.258C149.969 183.624 149.697 184.531 148.946 184.959C145.847 186.721 139.662 186.62 133.112 186.51L132.467 186.501H132.454C132.028 186.501 131.681 186.844 131.673 187.272C131.664 187.704 132.011 188.06 132.441 188.065L133.086 188.074L133.246 188.076H133.249C134.82 188.102 136.341 188.127 137.792 188.127C142.818 188.127 147.046 187.836 149.715 186.32C150.193 186.047 150.553 185.694 150.825 185.276C151.097 185.694 151.457 186.051 151.936 186.32C154.605 187.836 158.832 188.127 163.859 188.127C165.319 188.127 166.845 188.102 168.418 188.076L168.564 188.074L169.21 188.065C169.64 188.056 169.982 187.704 169.978 187.272C169.969 186.844 169.622 186.501 169.197 186.501Z" fill="#0D173D"/>
<path d="M162.961 207.805C164.44 207.702 166.125 207.585 168.498 207.5L168.494 207.505C168.933 207.492 169.289 207.826 169.302 208.258C169.319 208.69 168.981 209.051 168.551 209.069C166.201 209.154 164.527 209.271 163.06 209.374H163.059L162.884 209.386C161.005 209.523 159.425 209.633 157.124 209.633C156.378 209.633 155.557 209.62 154.622 209.593C152.555 209.439 151.431 208.778 150.821 207.333C150.215 208.778 149.095 209.435 147.05 209.589C146.097 209.615 145.263 209.628 144.504 209.628C142.203 209.628 140.627 209.518 138.753 209.386C137.243 209.276 135.531 209.157 133.086 209.069C132.656 209.051 132.318 208.69 132.335 208.258C132.353 207.826 132.726 207.487 133.143 207.505C135.614 207.593 137.34 207.712 138.863 207.822L138.873 207.823C141.313 207.994 143.249 208.13 146.971 208.025C149.332 207.848 149.96 207.505 149.96 200.332C149.96 199.9 150.311 199.547 150.742 199.547C150.768 199.547 150.794 199.556 150.821 199.556L150.832 199.554L150.842 199.553C150.85 199.551 150.858 199.55 150.867 199.549C150.878 199.548 150.889 199.547 150.9 199.547C151.334 199.547 151.681 199.9 151.681 200.332C151.681 207.5 152.309 207.844 154.706 208.025C158.386 208.126 160.318 207.99 162.757 207.819L162.961 207.805Z" fill="#0D173D"/>
<path d="M165.008 210.25C162.291 210.197 155.408 210.867 152.932 211.431C151.914 211.664 151.255 212.215 150.825 212.942C150.395 212.215 149.736 211.664 148.718 211.431C146.246 210.867 139.354 210.197 136.641 210.25C136.211 210.259 135.869 210.615 135.878 211.047C135.886 211.479 136.251 211.827 136.672 211.814C139.271 211.757 146.031 212.422 148.371 212.955C149.622 213.242 149.96 214.462 150.044 216.335C150.022 216.894 150.022 217.454 150.022 217.991V218.335C150.022 218.767 150.373 219.119 150.803 219.119H150.856C151.286 219.119 151.637 218.767 151.637 218.335V217.991C151.637 217.458 151.637 216.899 151.615 216.335C151.698 214.462 152.037 213.242 153.288 212.96C155.632 212.426 162.414 211.757 164.986 211.818C165.395 211.827 165.772 211.483 165.781 211.052C165.79 210.62 165.447 210.263 165.017 210.254L165.008 210.25Z" fill="#0D173D"/>
<path d="M130.348 9.30948V7.16116V5.72894L131.774 5.01284H133.913L134.626 2.86451H136.765L138.191 3.58062L140.33 2.86451L141.756 2.14841H143.895L149.6 2.86451L158.869 4.29673L166 7.87727L172.417 14.3222L173.843 19.335V25.0638L173.13 31.5088V35.0893L171.704 35.8055L170.278 32.2249C170.278 30.7927 170.135 27.2122 169.565 24.3477C168.994 21.4833 166.95 17.4254 166 15.7544H163.148H161.008L152.452 18.6189H139.617L136.765 17.1867H133.913L131.061 20.7672L129.635 25.0638V31.5088V36.5216L128.922 37.2377L126.782 31.5088L126.069 24.3477L127.495 14.3222L128.922 12.1739L130.348 9.30948Z" fill="#0D173D"/>
<path fill-rule="evenodd" clip-rule="evenodd" d="M294.983 252.809C297.261 257.29 297.309 257.385 297.414 259.665L297.379 259.651C297.418 260.559 297.48 261.801 297.734 263.938C298.604 271.178 298.441 273.716 298.336 275.236V275.333C298.239 276.835 296.286 283.7 296.062 284.475C295.974 284.788 295.706 285.009 295.386 285.039C295.294 285.048 293.147 285.224 291.729 283.674C291.229 283.132 290.899 282.449 290.719 281.647C290.008 281.611 288.937 281.413 288.187 280.633C287.471 279.884 287.216 278.827 287.436 277.478C287.778 275.364 287.664 274.276 287.519 272.893C287.418 271.95 287.309 270.883 287.339 269.349C287.365 268.087 286.999 267.344 286.539 266.412L286.527 266.388C285.799 264.921 284.903 263.097 285.294 258.845C285.105 258.607 284.912 258.409 284.727 258.255C284.868 260.867 284.877 266.102 282.914 268.331C282.291 269.041 281.523 269.411 280.627 269.429C276.332 269.503 276.159 265.484 275.958 260.807L275.957 260.77C275.908 259.585 275.856 258.356 275.741 257.078C275.267 253.359 274.697 251.482 273.639 250.183C272.146 248.354 270.873 244.327 273.481 240.727C273.647 240.41 273.283 239.392 272.59 238.079C272.572 238.052 272.559 238.022 272.546 237.995C271.835 236.66 270.799 235.034 269.648 233.519C266.159 229.862 263.337 227.699 260.607 225.606L260.605 225.605L260.594 225.597C256.674 222.59 252.966 219.748 247.55 212.964C241.663 205.584 239.965 202.001 238.169 198.203L238.167 198.199C237.105 195.958 236.008 193.641 233.981 190.365C230.456 185.298 216.031 165.942 214.24 164.272C214.063 164.105 213.868 163.928 213.657 163.738C213.612 163.698 213.566 163.657 213.52 163.615L213.513 163.608C211.844 162.101 209.242 159.75 207.313 156.257C206.36 160.452 203.604 170.105 196.202 184.408C192.124 192.541 193.279 201.142 194.398 209.457L194.422 209.633C194.717 211.829 195.022 214.093 195.206 216.273C195.496 219.696 195.992 224.156 196.571 228.808C196.571 228.813 196.58 228.822 196.58 228.822V228.839C196.589 228.861 196.589 228.888 196.589 228.914C196.593 228.936 196.598 228.963 196.598 228.985V229.002C196.622 229.187 196.645 229.372 196.668 229.557C196.691 229.742 196.714 229.928 196.738 230.113C196.747 230.143 196.751 230.179 196.751 230.214C197.967 239.784 199.49 249.812 200.325 253.117C200.382 253.355 200.469 253.69 200.584 254.117C204.807 270.138 212.849 307.929 206.988 345.536C206.988 345.593 206.984 345.655 206.971 345.712C206.961 345.751 206.953 345.79 206.944 345.831C206.937 345.864 206.93 345.898 206.922 345.932C206.001 351.748 204.745 357.56 203.09 363.284C203.2 372.095 203.778 374.127 204.287 375.915L204.289 375.92C204.455 376.498 204.627 377.101 204.767 377.885C205.041 379.385 205.091 380.672 205.139 381.915L205.14 381.944C205.193 383.323 205.25 384.75 205.61 386.491C205.698 386.905 205.983 387.716 206.347 388.742C208.92 396.005 215.754 415.296 210.127 447.463C209.828 450.811 209.408 454.341 209.001 457.76L208.968 458.042C207.893 467.079 206.879 475.614 207.871 480.989C208.643 485.615 208.968 487.625 209.051 490.101C209.67 491.973 212.73 496.855 214.574 499.79L214.8 500.151C215.306 500.953 215.727 501.627 215.992 502.072C216.4 502.764 216.619 503.275 216.795 503.685C217.173 504.571 217.383 505.06 219.425 506.716C219.82 507.038 220.232 507.364 220.658 507.699L220.687 507.721C223.557 509.995 227.122 512.819 229.056 517.115C230.131 519.714 229.749 521.186 229.24 521.966C228.832 522.592 228.204 523.001 227.432 523.165C227.335 523.579 227.133 524.103 226.707 524.522C226.448 524.777 226.018 525.072 225.377 525.169C225.149 525.716 224.688 526.526 223.845 527.02C223.226 527.381 222.524 527.509 221.751 527.39C221.273 527.91 220.316 528.751 219.043 528.897C218.173 529.003 217.322 528.769 216.51 528.21C215.706 528.844 214.065 529.901 211.997 529.901C211.742 529.901 211.483 529.888 211.216 529.853C208.749 529.536 206.532 527.725 204.618 524.478C203.191 523.971 197.427 521.53 197.928 515.37C197.972 513.978 196.54 513.088 193.784 511.515L193.349 511.268C190.039 509.373 188.103 507.695 189.855 497.534C190.149 495.177 189.824 492.608 189.692 491.749C188.955 491.079 187.647 488.995 188.2 482.778C188.863 475.323 189.486 468.282 180.32 438.853C179.89 437.403 179.297 436.566 178.67 435.685C176.668 432.878 174.6 429.975 177.361 409.817C179.012 395.069 178.889 394.862 177.398 392.344L177.397 392.342L177.387 392.327C177.069 391.787 176.672 391.118 176.224 390.214C176.023 389.808 175.803 389.399 175.575 388.989L175.518 388.892C175.513 388.888 175.513 388.879 175.513 388.879C175.158 388.244 174.78 387.601 174.39 386.936L174.387 386.931C171.696 382.363 168.349 376.679 167.454 365.059C167.059 359.926 166.378 354.766 165.43 349.607C165.224 348.585 165.035 347.607 164.864 346.668C163.907 341.989 162.726 337.314 161.325 332.674C160.848 331.087 160.047 328.872 159.119 326.306L159.113 326.29C156.163 318.134 151.707 305.806 151.088 295.685C151.04 294.072 151.009 292.658 150.983 291.411L150.983 291.385C150.939 289.333 150.899 287.471 150.79 286.3C150.681 287.467 150.641 289.324 150.597 291.372L150.597 291.397C150.57 292.644 150.54 294.063 150.491 295.658C149.868 305.795 145.422 318.109 142.476 326.265L142.462 326.304C141.533 328.871 140.732 331.087 140.254 332.674C138.854 337.309 137.678 341.975 136.721 346.65C136.549 347.602 136.356 348.598 136.145 349.633C135.197 354.784 134.521 359.935 134.126 365.059C133.231 376.679 129.883 382.363 127.193 386.931L127.19 386.936C127.124 387.049 127.058 387.162 126.992 387.274C126.672 387.822 126.362 388.352 126.071 388.879C126.066 388.883 126.066 388.892 126.066 388.892L125.979 389.046C125.759 389.438 125.553 389.826 125.36 390.214C124.912 391.118 124.516 391.787 124.197 392.327L124.188 392.342C122.695 394.858 122.572 395.065 124.227 409.834C126.984 429.97 124.916 432.874 122.915 435.685L122.903 435.701C122.279 436.576 121.687 437.408 121.268 438.84C112.098 468.273 112.721 475.318 113.384 482.773C113.937 488.99 112.629 491.075 111.892 491.744C111.764 492.608 111.44 495.186 111.738 497.565C113.485 507.686 111.549 509.365 108.239 511.264L107.805 511.51C105.052 513.083 103.617 513.973 103.665 515.401C104.166 521.525 98.4019 523.962 96.9752 524.469C95.0613 527.716 92.8444 529.527 90.3773 529.844C90.1095 529.875 89.8505 529.893 89.5959 529.893C87.5239 529.893 85.8822 528.835 85.0832 528.201C84.2711 528.756 83.4151 528.989 82.5503 528.888C81.2772 528.743 80.3203 527.901 79.8418 527.381C79.0692 527.5 78.3712 527.377 77.7478 527.011C76.905 526.513 76.4441 525.707 76.2158 525.161C75.5749 525.064 75.1491 524.773 74.8857 524.513C74.4599 524.094 74.2579 523.574 74.1614 523.156C73.3888 522.997 72.761 522.583 72.3528 521.957C71.8479 521.177 71.466 519.706 72.5283 517.128C74.4739 512.806 78.0468 509.977 80.9243 507.703L80.9392 507.69C81.365 507.355 81.7777 507.029 82.1728 506.708C84.207 505.055 84.419 504.566 84.7983 503.685L84.8023 503.676L84.8189 503.637C84.9915 503.236 85.2057 502.733 85.6056 502.064C85.9129 501.548 86.4177 500.742 87.0235 499.777C88.8672 496.842 91.9313 491.965 92.5459 490.092C92.6293 487.62 92.9541 485.607 93.7267 480.993C94.7188 475.605 93.7048 467.07 92.6293 458.033L92.5836 457.65C92.1807 454.257 91.7663 450.767 91.4616 447.388C85.847 415.289 92.6776 395.995 95.25 388.733L95.2825 388.642C95.6315 387.659 95.9067 386.884 95.9875 386.482C96.3475 384.741 96.4045 383.314 96.4572 381.935C96.5055 380.683 96.5582 379.388 96.8303 377.877C96.9708 377.092 97.142 376.493 97.3088 375.912L97.311 375.903C97.8198 374.116 98.3975 372.087 98.5073 363.275C96.8479 357.551 95.5968 351.739 94.6749 345.923C94.6574 345.853 94.6442 345.778 94.6266 345.703C94.6091 345.646 94.6091 345.584 94.6091 345.527C88.7487 307.925 96.7952 270.129 101.014 254.108C101.124 253.681 101.211 253.346 101.273 253.108C102.107 249.804 103.63 239.78 104.846 230.21C104.846 230.17 104.851 230.135 104.859 230.095C104.908 229.725 104.956 229.355 105 228.989V228.971C105 228.949 105.009 228.923 105.009 228.901C105.013 228.879 105.013 228.852 105.022 228.826V228.808C105.026 228.8 105.026 228.795 105.026 228.791C105.606 224.138 106.102 219.679 106.391 216.26C106.584 214.021 106.896 211.695 107.199 209.443C108.318 201.129 109.473 192.528 105.39 184.386C97.9936 170.088 95.2368 160.438 94.2843 156.244C92.3527 159.747 89.7452 162.1 88.0771 163.602L87.9853 163.684C87.7601 163.888 87.5468 164.08 87.3571 164.259C85.5661 165.928 71.1412 185.285 67.5942 190.387C65.5898 193.632 64.4924 195.948 63.4309 198.189L63.4283 198.195C61.6328 201.993 59.934 205.579 54.0473 212.955C48.6302 219.745 44.9208 222.587 40.992 225.596C38.2618 227.689 35.4384 229.853 31.9489 233.51C29.6267 236.563 27.7786 240.07 28.1342 240.745C30.7198 244.318 29.4511 248.345 27.9586 250.174C26.9007 251.474 26.33 253.351 25.8559 257.1C25.7498 258.309 25.6971 259.498 25.6461 260.646L25.6408 260.766L25.6381 260.83C25.4374 265.495 25.2657 269.485 20.97 269.424C20.0789 269.406 19.3063 269.036 18.6829 268.327C16.7207 266.097 16.7295 260.863 16.8699 258.25C16.6856 258.409 16.4924 258.603 16.3037 258.841C16.6941 263.094 15.7956 264.914 15.0715 266.381L15.0701 266.384C14.6004 267.327 14.2317 268.071 14.258 269.349C14.2879 270.845 14.1802 271.895 14.0852 272.821L14.0779 272.893C13.9331 274.276 13.8191 275.364 14.1614 277.478C14.3809 278.827 14.1263 279.889 13.4108 280.633C12.6601 281.413 11.5934 281.611 10.8779 281.647C10.7023 282.449 10.3686 283.127 9.87259 283.674C8.45468 285.224 6.30367 285.048 6.21587 285.039C5.89542 285.009 5.62764 284.784 5.53984 284.475C5.31596 283.7 3.35811 276.84 3.25714 275.333V275.236C3.16055 273.72 2.99842 271.176 3.86293 263.938C4.11712 261.841 4.17681 260.606 4.22044 259.702L4.2229 259.651C4.33251 257.367 4.37643 257.281 6.67267 252.768L6.68119 252.751L6.76021 252.597C9.76096 246.912 11.0913 242.711 12.3768 238.65L12.3792 238.643C13.5205 235.021 14.6048 231.606 16.7646 227.68C18.3435 224.267 20.2052 219.636 22.1805 214.723L22.2519 214.546C27.1289 202.411 33.2 187.316 39.2229 180.041C42.778 175.751 45.3326 173.072 47.1983 171.115C49.7487 168.445 51.0314 167.1 52.0323 164.673C60.9112 143.638 64.9191 139.41 67.0705 137.14L67.0718 137.139L67.1153 137.092C67.3725 136.818 67.5872 136.589 67.7742 136.368C67.7786 136.359 67.7874 136.35 67.7961 136.341C68.1517 135.905 68.3931 135.5 68.5907 134.861C71.0617 125.392 72.4739 121.902 73.4046 119.601L73.4151 119.576L73.4239 119.554C73.8589 118.485 74.2031 117.639 74.5125 116.527C77.0938 108.067 83.3844 97.488 98.7136 95.0029L98.7825 94.9915C99.0147 94.9536 99.1837 94.9258 99.2799 94.9016C99.4879 94.8465 99.7575 94.7778 100.069 94.6989C100.256 94.6509 100.459 94.5993 100.671 94.5447L100.678 94.5429C101.045 94.4508 101.482 94.3411 101.944 94.223C101.98 94.2098 102.019 94.201 102.059 94.1922C103.595 93.8001 105.36 93.3374 105.715 93.1744C105.895 93.0885 106.573 92.5566 107.184 92.0773L107.234 92.0376C108.7 90.8832 110.711 89.3058 112.208 88.6184C113.005 88.2554 114.635 87.5676 116.571 86.7511C116.821 86.6454 117.076 86.5379 117.335 86.4286L117.675 86.2854C120.876 84.9389 124.396 83.458 125.68 82.8112C127.533 81.8815 130.799 78.784 131.646 77.9644C131.914 74.4919 132.037 63.192 132.058 61.3017L132.059 61.2167C131.137 59.2516 130.759 56.4801 130.619 55.0966C129.403 55.1935 128.406 54.9292 127.577 54.2991C125.851 52.986 124.872 50.0383 124.495 45.0242C124.236 41.5565 124.859 39.1993 126.347 38.0228C126.87 37.6131 127.427 37.406 127.937 37.3134C127.888 37.2473 127.844 37.168 127.818 37.0843L127.813 37.0691C127.677 36.6395 125.735 30.5004 125.25 25.3199C124.789 20.3586 126.514 11.4582 129.842 8.89388C129.908 8.60748 129.965 8.06993 129.574 7.72185C129.047 7.2548 128.885 6.59828 129.135 5.96821C129.591 4.82702 131.277 4.08679 133.261 4.14847C133.415 4.15288 133.52 4.13966 133.573 4.13085C133.578 4.09901 133.583 4.06037 133.588 4.02172C133.591 3.99085 133.595 3.95997 133.599 3.93257L133.6 3.92683C133.644 3.56053 133.717 2.95664 134.284 2.54024C134.951 2.05556 136.066 2.00709 138.007 2.38602C138.998 2.43362 139.431 2.13707 139.891 1.82181L139.916 1.80441C140.478 1.41227 141.181 0.931999 142.445 1.3638C144.03 1.32414 156.216 1.15231 163.806 5.58487C171.361 10.0042 177.77 15.6749 173.222 36.2075C173.13 36.6305 172.713 36.8949 172.296 36.8023C172.361 37.0094 172.427 37.1636 172.48 37.2782C173.169 37.1989 174.297 37.2341 175.303 38.0272C176.791 39.2037 177.414 41.5565 177.155 45.0286C176.778 50.0428 175.799 52.986 174.073 54.3035C173.244 54.938 172.247 55.1979 171.031 55.101C170.891 56.4801 170.513 59.256 169.591 61.2211L169.592 61.3062C169.613 63.1964 169.736 74.4963 170.004 77.9688C170.851 78.7884 174.113 81.8859 175.97 82.8156C177.282 83.4765 180.932 85.0125 184.188 86.3819L184.319 86.4374C184.712 86.6035 185.096 86.7657 185.466 86.9221C187.228 87.6663 188.694 88.2849 189.438 88.6273C190.935 89.3146 192.945 90.892 194.411 92.0464C195.039 92.5399 195.746 93.0951 195.935 93.1876C196.286 93.3462 198.042 93.8089 199.569 94.201H199.578C199.585 94.201 199.591 94.2032 199.596 94.2054C199.601 94.2076 199.607 94.2098 199.613 94.2098C199.774 94.2508 199.932 94.2913 200.084 94.3305C200.409 94.4138 200.713 94.4923 200.979 94.5579C201.545 94.7033 202.037 94.8267 202.37 94.9148C202.45 94.9382 202.582 94.9593 202.759 94.9875C202.814 94.9963 202.873 95.0056 202.936 95.0161C218.266 97.5012 224.556 108.085 227.133 116.522C227.454 117.659 227.796 118.51 228.235 119.589C229.17 121.894 230.579 125.374 233.072 134.909C233.261 135.526 233.498 135.923 233.854 136.35C233.867 136.363 233.876 136.372 233.885 136.385C234.078 136.619 234.306 136.861 234.583 137.152L234.584 137.153C236.735 139.423 240.743 143.651 249.618 164.677C250.615 167.105 251.892 168.444 254.425 171.101L254.451 171.128C256.317 173.084 258.871 175.767 262.423 180.055C268.437 187.314 274.495 202.382 279.369 214.503L279.389 214.555C281.387 219.533 283.279 224.235 284.899 227.742C287.029 231.602 288.109 235.012 289.251 238.616L289.262 238.652C290.548 242.714 291.878 246.913 294.877 252.597L294.96 252.765L294.983 252.809ZM199.295 95.7493L199.236 95.7343H199.227C191.374 94.1614 183.081 96.316 179.337 97.5276C181.119 98.2106 183.74 99.3342 186.049 100.806C190.97 103.943 193.055 106.714 195.943 110.557L196.082 110.74C197.378 112.458 198.846 114.403 200.825 116.738L200.826 116.74C203.008 119.309 207.52 124.622 213.248 128.52C214.785 129.569 217.357 130.552 220.693 131.376C222.765 131.618 225.847 132.226 229.253 133.755C229.995 134.09 230.724 134.46 231.435 134.852C229.042 125.768 227.686 122.416 226.786 120.191L226.782 120.18C226.325 119.056 225.965 118.166 225.627 116.963C223.187 108.966 217.216 98.92 202.677 96.5627L202.594 96.5486C202.3 96.4988 202.087 96.4627 201.966 96.4305C201.637 96.3424 201.15 96.219 200.588 96.078C200.144 95.9643 199.712 95.8551 199.295 95.7493ZM173.652 176.411C173.674 173.934 173.621 172.842 173.582 172.044L173.573 172.049L173.572 172.028C173.537 171.29 173.512 170.747 173.56 169.612C173.573 169.334 173.586 169.066 173.604 168.801C173.621 168.343 173.652 167.911 173.709 167.497C174.038 164.126 174.745 161.831 175.289 160.077C175.948 157.962 176.308 156.795 175.654 155.31C174.596 152.917 171.352 151.159 168.143 149.833C167.48 149.599 166.821 149.348 166.172 149.062C161.475 147.313 155.544 146.079 152.994 147.863C152.111 148.48 151.681 149.445 151.681 150.807C151.681 151.238 151.33 151.591 150.9 151.591C150.886 151.591 150.873 151.589 150.86 151.586C150.847 151.584 150.834 151.582 150.821 151.582C150.794 151.586 150.768 151.591 150.742 151.591C150.307 151.591 149.96 151.238 149.96 150.807C149.96 149.445 149.53 148.48 148.648 147.863C146.097 146.079 140.162 147.313 135.461 149.062C134.815 149.344 134.161 149.595 133.503 149.828C130.289 151.155 127.045 152.913 125.987 155.31C125.333 156.79 125.693 157.958 126.352 160.077C126.896 161.826 127.603 164.118 127.932 167.475C127.989 167.894 128.02 168.339 128.037 168.801C128.055 169.066 128.068 169.33 128.081 169.608C128.129 170.745 128.104 171.283 128.07 172.019L128.068 172.044C128.029 172.842 127.976 173.934 127.998 176.411C128.042 181.412 129.025 202.975 129.938 217.357C131.404 240.463 145.461 258.096 150.746 258.096C150.772 258.096 150.799 258.105 150.825 258.105C150.851 258.1 150.878 258.096 150.904 258.096C156.189 258.096 170.246 240.463 171.712 217.357C172.625 202.984 173.608 181.42 173.652 176.411ZM145.755 139.483C148.472 136.275 149.969 132.116 149.969 127.767V105.908C149.969 105.586 149.886 98.1842 138.081 97.0606C131.198 96.4041 127.313 97.5585 125.228 98.1798C125.083 98.2238 124.951 98.2635 124.824 98.2987C124.275 98.475 119.908 99.9114 116.431 102.128C111.752 105.108 109.841 107.648 106.953 111.488L106.944 111.499C105.61 113.28 104.091 115.298 102.01 117.752L102.005 117.757C99.7737 120.385 95.1758 125.8 89.2755 129.816C88.5687 130.296 87.6995 130.75 86.6723 131.186C93.2922 131.38 97.0235 135.249 100.009 138.879C100.439 139.404 100.887 139.906 101.347 140.395C101.365 140.408 101.383 140.421 101.396 140.439L101.712 140.783C109.855 149.163 122.085 152.168 132.849 148.405C133.534 148.123 134.218 147.854 134.899 147.603C139.095 145.762 142.748 143.03 145.755 139.483ZM154.71 140.501C152.884 138.346 151.567 135.799 150.825 133.054L150.821 133.05C150.079 135.795 148.762 138.342 146.936 140.496C145.215 142.527 143.288 144.303 141.181 145.814C144.232 145.242 147.493 145.145 149.543 146.577C150.083 146.956 150.505 147.418 150.825 147.96C151.145 147.418 151.567 146.951 152.107 146.577C154.157 145.145 157.419 145.242 160.465 145.814C158.358 144.308 156.431 142.532 154.71 140.501ZM127.467 151.291C126.106 151.472 124.741 151.573 123.376 151.573L123.367 151.578C118.424 151.578 113.503 150.384 109.043 148.114C111.413 150.291 113.801 152.358 116.049 154.301C120.03 157.742 123.49 160.734 125.641 163.294C125.392 162.273 125.123 161.399 124.888 160.637L124.855 160.531C124.168 158.304 123.671 156.694 124.561 154.675C125.14 153.367 126.172 152.256 127.467 151.291ZM177.08 154.671C177.976 156.693 177.476 158.306 176.782 160.54H176.778L176.749 160.632C176.514 161.395 176.245 162.269 175.996 163.289C178.147 160.725 181.606 157.733 185.588 154.292C187.836 152.349 190.224 150.282 192.594 148.106C188.138 150.379 183.217 151.569 178.27 151.569C176.905 151.569 175.54 151.472 174.179 151.287C175.469 152.252 176.501 153.362 177.08 154.671ZM166.756 147.603C167.436 147.859 168.121 148.123 168.801 148.405C179.561 152.168 191.786 149.163 199.929 140.787C199.987 140.719 200.048 140.654 200.109 140.587C200.155 140.539 200.201 140.49 200.246 140.439C200.253 140.432 200.26 140.425 200.267 140.419C200.278 140.41 200.288 140.401 200.298 140.391C200.759 139.901 201.207 139.399 201.637 138.875C204.622 135.244 208.353 131.38 214.973 131.182C213.946 130.75 213.073 130.292 212.37 129.811C206.479 125.799 201.878 120.384 199.662 117.776L199.653 117.765C197.583 115.327 196.082 113.33 194.756 111.568L194.701 111.495C191.808 107.649 189.894 105.106 185.215 102.123C181.738 99.9026 177.379 98.4705 176.826 98.2943C176.699 98.2591 176.567 98.2194 176.422 98.1754C174.337 97.5541 170.456 96.3997 163.569 97.0562C151.764 98.1797 151.681 105.582 151.681 105.895V127.767C151.681 132.116 153.178 136.275 155.895 139.483C158.907 143.03 162.559 145.762 166.756 147.603ZM175.263 84.2211C173.63 83.3972 171.181 81.2294 169.78 79.9207V89.0326C169.78 93.4123 172.107 95.0294 176.98 96.6905C178.485 96.1045 185.728 93.474 193.871 93.6106C193.795 93.552 193.716 93.4903 193.633 93.4255C193.573 93.3788 193.51 93.3304 193.446 93.2801L193.328 93.1885C191.931 92.0962 190.077 90.6461 188.784 90.0548C187.906 89.6539 185.869 88.7947 183.709 87.887C180.395 86.4947 176.641 84.9129 175.263 84.2211ZM130.939 10.0351C128.248 11.8196 126.33 20.0811 126.804 25.1789V25.1834C127.151 28.8933 128.31 33.2334 128.92 35.3395C128.964 33.0615 128.99 29.8142 128.85 27.3776C128.652 23.9496 130.386 18.8473 133.187 17.0056C134.548 16.1155 136.04 16.0406 137.511 16.7853C142.138 19.1337 154.916 18.1071 163.31 14.71C164.236 14.428 165.127 14.5866 165.948 15.1418C168.626 16.9571 170.491 22.9803 170.948 27.9901C171.264 31.4489 171.584 33.6608 171.861 35.0795C175.851 16.2169 170.219 11.163 163.011 6.94637C155.456 2.52702 142.476 2.93679 142.348 2.94119C142.234 2.9456 142.138 2.92798 142.041 2.88832C141.442 2.65578 141.292 2.75966 140.805 3.09553L140.792 3.10435C140.217 3.50052 139.432 4.04239 137.866 3.9546C137.831 3.9546 137.796 3.9502 137.761 3.94139C135.575 3.50959 135.215 3.80039 135.202 3.81361C135.182 3.84862 135.167 3.97976 135.154 4.08277C135.152 4.09646 135.151 4.10964 135.149 4.12204L135.147 4.13595C135.09 4.63718 134.957 5.78689 133.204 5.71706C131.497 5.64656 130.627 6.34273 130.579 6.56744C131.699 7.53238 131.514 8.97319 131.233 9.67376C131.172 9.82357 131.071 9.94694 130.939 10.0351ZM131.176 53.4443C131.396 53.4002 131.624 53.4575 131.804 53.5941L131.808 53.5985C131.988 53.7351 132.098 53.9466 132.111 54.1713C132.111 54.2154 132.37 58.3483 133.542 60.7056C133.599 60.8157 133.626 60.9391 133.626 61.0625C133.626 61.0783 133.625 61.107 133.625 61.1462C133.624 61.2365 133.913 60.9528 133.913 61.1462C135.335 63.2788 140.123 68.9692 150.825 70.8947C161.536 68.9692 166.459 63.1951 167.881 61.0625C167.877 60.7805 168.024 61.1198 168.024 61.0625C168.024 60.9391 168.055 60.8157 168.108 60.7056C169.28 58.3483 169.539 54.211 169.539 54.1713C169.552 53.9466 169.662 53.7351 169.842 53.5985C170.017 53.4575 170.25 53.4046 170.469 53.4487C171.646 53.6822 172.467 53.5632 173.125 53.0609C174.455 52.0519 175.263 49.3862 175.597 44.914C175.864 41.2966 175.066 39.847 174.346 39.2698C173.476 38.5702 172.401 38.8736 172.313 38.8985L172.309 38.8996C171.914 39.0186 171.501 38.8115 171.356 38.4326C170.755 37.6086 170.07 35.4629 169.398 28.1266C168.924 22.8878 167.023 17.7502 165.079 16.4328C164.64 16.1332 164.245 16.0538 163.832 16.1772C155.013 19.7506 141.852 20.7332 136.813 18.1776C135.843 17.6841 134.938 17.7282 134.047 18.3142C131.795 19.7902 130.241 24.3506 130.408 27.2851C130.628 31.2065 130.439 37.159 130.411 38.0265C130.409 38.0919 130.408 38.1284 130.408 38.133C130.399 38.3709 130.281 38.578 130.109 38.7146C129.912 38.904 129.618 38.9878 129.337 38.8952C129.258 38.8688 128.174 38.5648 127.3 39.2654C126.58 39.8426 125.777 41.2922 126.049 44.9096C126.387 49.3818 127.195 52.0475 128.52 53.0565C129.183 53.5633 130 53.6822 131.176 53.4443ZM133.424 72.8004V89.037H133.428C133.428 92.1037 132.331 94.0688 130.645 95.4656C132.673 95.2585 135.167 95.2056 138.231 95.4964C146.536 96.2851 149.657 100.123 150.825 102.912C151.997 100.127 155.114 96.2895 163.424 95.4964C166.488 95.2056 168.981 95.2585 171.009 95.4656C169.324 94.0688 168.226 92.1037 168.226 89.037V72.7916C168.13 69.2755 168.073 65.1734 168.046 62.8646C165.961 65.6096 160.742 71.0115 150.97 72.7696C150.948 72.774 150.926 72.774 150.904 72.774C150.886 72.774 150.869 72.77 150.851 72.7661C150.843 72.7643 150.834 72.7621 150.825 72.7608C150.816 72.7621 150.807 72.7643 150.799 72.7661C150.781 72.77 150.764 72.774 150.746 72.774C150.724 72.774 150.702 72.7696 150.68 72.7696C143.771 71.5271 139.205 68.4648 136.589 66.1163C135.237 64.9002 134.262 63.7634 133.604 62.8866C133.573 65.1998 133.516 69.2931 133.424 72.8004ZM112.862 90.0504C111.532 90.6629 109.605 92.1742 108.2 93.2801L108.196 93.2845C108.131 93.3343 108.069 93.3828 108.009 93.4299C107.926 93.4947 107.846 93.5564 107.77 93.615C115.908 93.4784 123.152 96.1089 124.662 96.6949C129.534 95.0338 131.861 93.4167 131.861 89.037V79.9207C130.461 81.225 128.011 83.3972 126.378 84.2167C125 84.9085 121.251 86.4859 117.941 87.8782C115.781 88.7859 113.74 89.6451 112.862 90.0504ZM76.0139 116.976C75.6846 118.162 75.3247 119.052 74.8681 120.175H74.8637C73.9594 122.405 72.603 125.758 70.2105 134.848C70.9217 134.455 71.6504 134.085 72.3923 133.75C75.7988 132.222 78.8848 131.613 80.9524 131.371C84.2887 130.547 86.8611 129.56 88.3931 128.516C94.1174 124.621 98.6302 119.307 100.799 116.752C102.837 114.349 104.326 112.371 105.638 110.627L105.707 110.534C108.588 106.706 110.675 103.934 115.588 100.801C117.901 99.3253 120.518 98.2018 122.3 97.5232C118.556 96.3115 110.263 94.1614 102.41 95.7299L102.356 95.7436C101.938 95.8493 101.504 95.9595 101.058 96.0736C100.496 96.2146 100.009 96.338 99.6793 96.4261C99.5476 96.4614 99.3062 96.5054 98.9682 96.5583C84.4291 98.9156 78.459 108.962 76.0139 116.976ZM13.6878 265.709L13.6917 265.701H13.6873L13.6925 265.691C14.1213 264.825 14.588 263.884 14.7716 262.321C14.157 263.626 13.5425 264.383 13.0157 265.031L13.0106 265.037C12.3635 265.836 11.8955 266.414 11.5758 267.781C11.2861 269.794 10.9788 271.05 10.7506 271.966L10.7471 271.981C10.3064 273.776 10.1554 274.391 10.8735 278.386C10.9788 278.99 11.0359 279.554 11.0447 280.078C11.4836 280.03 11.9885 279.889 12.3089 279.554C12.6645 279.179 12.7786 278.571 12.6426 277.738C12.265 275.416 12.4011 274.117 12.546 272.738C12.6469 271.799 12.7479 270.825 12.7172 269.393C12.6822 267.737 13.193 266.706 13.6878 265.709ZM24.3282 256.95C24.8462 252.853 25.5091 250.76 26.7734 249.204L26.7777 249.2C27.9191 247.803 28.9551 244.516 26.8831 241.657C26.4661 241.035 26.567 240.075 26.9402 238.995C25.9393 239.273 24.956 239.41 24.0122 239.41C22.7084 239.41 21.488 239.145 20.4257 238.616C18.4064 237.607 16.8304 235.611 15.9656 233.078C15.1602 235.086 14.5428 237.034 13.9068 239.04L13.874 239.143C12.6289 243.078 11.2193 247.531 8.16056 253.328L8.08594 253.474C6.62266 256.35 5.8603 258.438 5.79884 259.739C5.75494 260.674 5.69349 261.947 5.4301 264.141C4.57847 271.235 4.73651 273.689 4.83747 275.152V275.249C4.89893 276.196 6.04467 280.483 6.8919 283.48C7.40551 283.427 8.19568 283.237 8.75319 282.62C9.47312 281.823 9.67505 280.492 9.34581 278.664C8.56882 274.328 8.76636 273.526 9.24485 271.587C9.47751 270.653 9.76284 269.49 10.057 267.485C10.4696 265.697 11.1237 264.89 11.8173 264.04C12.5723 263.11 13.4283 262.053 14.2492 259.281C14.2624 259.242 14.2799 259.202 14.2974 259.163C15.5112 256.669 17.4797 256.153 17.596 256.123L17.5987 256.122C17.8445 256.06 18.1035 256.126 18.2922 256.294C18.4854 256.461 18.582 256.712 18.5556 256.964C18.3274 259.162 18.1254 265.318 19.877 267.305C20.2106 267.684 20.5749 267.864 21.0271 267.873H21.1193C23.5688 267.873 23.8849 265.886 24.1087 260.713C24.157 259.51 24.2097 258.268 24.3282 256.95ZM62.0753 197.479C63.146 195.221 64.2597 192.872 66.3168 189.55L66.3124 189.541C67.2825 188.144 69.1219 185.606 71.308 182.632C68.0595 184.888 65.0393 185.796 62.4713 185.796C60.8866 185.796 59.4731 185.452 58.2922 184.866C54.7847 183.13 50.5003 178.222 53.8497 164.377C53.7224 164.673 53.5951 164.972 53.4678 165.276C52.3633 167.958 50.9375 169.455 48.3655 172.154L48.2764 172.247C46.4322 174.182 43.9081 176.83 40.4213 181.041C34.562 188.124 28.5494 203.075 23.7141 215.098L23.7005 215.132C21.6943 220.128 19.7979 224.847 18.1606 228.39C17.7216 229.192 17.3309 229.972 16.9709 230.734C17.4757 233.708 19.0473 236.18 21.1105 237.211C22.9103 238.11 25.3335 238.044 27.805 237.043C28.7927 235.193 30.1228 233.369 30.7549 232.54C30.7725 232.518 30.79 232.496 30.812 232.474C34.3899 228.72 37.2687 226.515 40.0457 224.387L40.0657 224.371C43.9156 221.424 47.5503 218.635 52.8532 211.995C58.6285 204.761 60.2887 201.254 62.0442 197.546L62.0455 197.542L62.0753 197.479ZM93.9023 153.508C93.9638 153.358 94.0691 153.234 94.1965 153.151L94.1877 153.146C94.574 151.899 94.8813 150.626 95.092 149.344C95.5836 146.295 96.8918 138.179 92.502 134.592C90.0367 132.575 86.6113 132.675 82.984 132.781L82.9761 132.781C81.9225 132.808 79.6135 132.979 76.7294 133.817C76.7241 133.818 76.7189 133.82 76.7136 133.822C76.6938 133.829 76.6758 133.835 76.6548 133.839C75.5222 134.169 74.3018 134.601 73.0288 135.174C71.5802 135.83 70.1798 136.61 68.8716 137.491C68.6653 137.729 68.4414 137.967 68.2 138.223L68.1912 138.232C66.9349 139.559 64.7891 141.826 61.0446 148.938C49.6662 174.234 54.8681 181.429 58.9858 183.465C62.8137 185.359 69.4906 184.214 76.7557 175.309C76.7588 175.303 76.7641 175.299 76.7685 175.295L76.7733 175.291C81.1192 169.506 85.3027 164.087 86.3211 163.135C86.4954 162.974 86.6859 162.801 86.8883 162.619C86.9454 162.567 87.0038 162.515 87.063 162.461L87.0898 162.437C89.1003 160.617 92.128 157.877 93.9023 153.508ZM108.771 209.677C108.455 212.012 108.16 214.22 107.972 216.418V216.423C107.704 219.542 107.234 223.816 106.672 228.385C110.878 229.121 115.597 227.852 118.371 225.182C120.654 222.988 125.728 216.282 123.577 201.543C122.521 194.33 123.908 186.584 125.131 179.752L125.136 179.728C125.9 175.459 126.571 171.7 126.484 168.907C126.457 168.471 126.422 168.052 126.383 167.651C125.987 164.941 120.913 160.553 115.039 155.477C110.382 151.45 105.123 146.894 100.61 141.884C99.9822 141.245 99.3808 140.571 98.8058 139.871C97.9453 138.826 97.0454 137.786 96.049 136.839C97.9761 141.262 97.0454 147.056 96.6372 149.598C96.3826 151.163 95.9919 152.723 95.4871 154.235C95.9304 156.649 98.2175 167.1 106.804 183.698C111.11 192.281 109.921 201.123 108.771 209.675L108.771 209.677ZM119.807 438.417C120.303 436.738 121.001 435.756 121.677 434.804L121.663 434.795C123.485 432.235 125.369 429.587 122.695 410.046C121.65 400.718 121.295 396.986 121.571 394.827C118.595 397.709 115.224 399.312 111.927 399.312H111.769C108.016 399.255 104.829 397.18 102.792 393.47C100.838 389.923 99.6662 388.447 97.2781 387.702C97.142 388.13 96.962 388.645 96.7338 389.284L96.7316 389.291C94.1965 396.456 87.473 415.462 93.0244 447.212C93.3492 450.758 93.7794 454.376 94.1965 457.874L94.2035 457.932C95.2895 467.07 96.3145 475.697 95.2807 481.293C94.5125 485.889 94.1965 487.854 94.1218 490.277C94.1218 490.348 94.1087 490.414 94.0911 490.48C93.4901 492.48 90.412 497.384 88.3707 500.636L88.3668 500.64L88.157 500.975C87.653 501.777 87.2338 502.447 86.9708 502.892C86.6218 503.478 86.4379 503.905 86.275 504.284L86.2597 504.319C85.7724 505.456 85.4124 506.135 83.178 507.95C82.7786 508.276 82.3615 508.607 81.9313 508.946L81.9269 508.95C79.0398 511.233 75.7672 513.815 73.9858 517.776C73.1517 519.803 73.4414 520.746 73.6873 521.124C73.9814 521.583 74.5082 521.684 74.8989 521.693C75.3291 521.702 75.6715 522.059 75.6627 522.49C75.6627 522.658 75.7285 523.16 76.0095 523.433C76.1851 523.601 76.4353 523.68 76.7821 523.662C77.1816 523.645 77.4801 523.9 77.5678 524.257C77.5678 524.266 77.8356 525.271 78.5731 525.698C78.955 525.918 79.4116 525.954 79.9603 525.799C80.2764 525.711 80.6144 525.835 80.8031 526.103L80.8084 526.112C80.8822 526.205 81.6846 527.249 82.7654 527.372C83.3844 527.443 83.9901 527.2 84.6223 526.637C84.9296 526.359 85.4037 526.377 85.6934 526.672C85.711 526.689 87.6908 528.655 90.2149 528.32C92.2298 528.055 94.1087 526.421 95.7943 523.46C95.8953 523.279 96.0621 523.151 96.2597 523.094C96.5187 523.023 102.599 521.213 102.133 515.52C102.045 513.044 104.258 511.779 107.059 510.18L107.489 509.933C110.131 508.422 111.879 507.417 110.224 497.825C109.824 494.652 110.408 491.339 110.434 491.198C110.483 490.951 110.645 490.735 110.873 490.63C110.873 490.63 110.875 490.63 110.879 490.625C110.983 490.528 112.417 489.198 111.861 482.945C111.185 475.332 110.548 468.136 119.807 438.417ZM124.688 388.24C125.066 387.561 125.465 386.878 125.882 386.169H125.878C128.275 382.098 131.207 377.114 132.344 367.602C130.153 373.801 126.435 380.3 120.469 380.3H120.329C113.696 380.19 112.392 374.471 111.444 370.298L111.442 370.29C111.03 368.486 110.605 366.623 109.881 366.275C109.618 366.152 109.223 366.218 108.7 366.474C106.207 367.698 104.139 367.866 102.375 366.989C101.475 366.54 100.715 365.848 100.061 364.953C99.8988 372.62 99.3369 374.607 98.8321 376.37C98.6697 376.938 98.516 377.476 98.3887 378.185C98.1385 379.591 98.0902 380.771 98.0419 382.027C97.9936 383.301 97.941 384.614 97.6644 386.187C100.645 387.085 102.089 388.936 104.174 392.721C105.93 395.92 108.643 397.709 111.808 397.757C116.347 397.801 121.084 394.364 124.543 388.5C124.557 388.476 124.574 388.444 124.593 388.41C124.615 388.37 124.64 388.324 124.666 388.28L124.688 388.24ZM135.228 346.382C135.25 346.241 135.276 346.1 135.303 345.963L135.307 345.972C137.747 332.266 136.501 330.749 133.776 327.432L133.77 327.425C130.921 323.953 126.617 318.708 122.915 298.628C121.914 293.186 121.194 286.648 120.434 279.726C118.297 260.286 115.882 238.33 106.273 231.593C105.101 240.678 103.674 250.125 102.818 253.522L102.778 253.677C102.721 253.9 102.646 254.19 102.555 254.536C98.3492 270.499 90.3203 308.229 96.2377 345.646C96.5933 347.289 96.9225 348.959 97.2386 350.576L97.2443 350.605C98.5898 357.49 99.8593 363.986 103.077 365.588C104.376 366.236 105.996 366.064 108.02 365.068C108.99 364.588 109.846 364.517 110.562 364.861C111.966 365.535 112.41 367.482 112.972 369.949C113.898 374.025 114.948 378.643 120.36 378.736H120.469C130.303 378.736 133.498 356.555 133.529 356.331C133.529 356.324 133.531 356.317 133.534 356.311C133.536 356.304 133.538 356.298 133.538 356.291C133.823 354.185 134.161 352.074 134.539 349.968C134.539 349.924 134.543 349.884 134.552 349.84C134.57 349.757 134.586 349.674 134.602 349.591C134.619 349.509 134.635 349.426 134.653 349.343C134.837 348.356 135.026 347.369 135.228 346.382ZM148.973 295.61C149.016 294.05 149.047 292.631 149.073 291.389H149.069L149.071 291.295C149.136 288.265 149.177 286.336 149.416 285.18C142.792 284.264 139.728 276.121 134.315 257.748C128.314 237.369 112.866 231.553 106.747 230.024C117.28 236.879 119.771 259.509 121.974 279.532L121.987 279.656C122.742 286.506 123.455 292.977 124.442 298.333C128.073 318.024 132.225 323.078 134.973 326.422C136.843 328.695 138.086 330.211 138.174 334.37C138.38 333.661 138.586 332.952 138.801 332.242C139.267 330.699 140.019 328.61 140.892 326.19L141.058 325.729C143.973 317.657 148.368 305.486 148.973 295.61ZM150.825 283.718C150.851 283.713 150.878 283.709 150.904 283.709C157.072 283.709 159.908 277.443 165.838 257.307C170.895 240.132 182.454 232.915 190.035 229.954C187.023 229.487 184.174 228.218 182.199 226.315C179.741 223.948 174.271 216.775 176.532 201.319C177.519 194.582 176.273 187.237 175.101 180.68C174.815 189.087 174.016 205.685 173.27 217.458C171.804 240.555 157.559 259.66 150.904 259.66C150.891 259.66 150.878 259.658 150.865 259.656C150.851 259.654 150.838 259.651 150.825 259.651C150.799 259.656 150.772 259.66 150.746 259.66C144.091 259.66 129.846 240.555 128.38 217.458C127.634 205.676 126.839 189.083 126.549 180.68C125.377 187.237 124.135 194.582 125.118 201.319C127.379 216.775 121.909 223.948 119.451 226.315C117.476 228.218 114.627 229.487 111.615 229.954C119.196 232.91 130.755 240.132 135.812 257.307C141.742 277.439 144.578 283.709 150.746 283.709C150.759 283.709 150.772 283.711 150.785 283.713C150.799 283.715 150.812 283.718 150.825 283.718ZM163.477 334.36C163.276 333.656 163.067 332.947 162.853 332.242C162.375 330.655 161.592 328.488 160.688 325.985L160.614 325.779C157.695 317.706 153.288 305.506 152.682 295.636C152.634 294.054 152.603 292.64 152.577 291.397L152.574 291.301C152.51 288.268 152.469 286.336 152.23 285.18C158.858 284.264 161.918 276.121 167.331 257.748C173.332 237.369 188.779 231.553 194.899 230.029C184.365 236.883 181.875 259.513 179.672 279.536L179.67 279.549L179.663 279.612C178.907 286.484 178.192 292.969 177.203 298.337C173.574 318.027 169.422 323.079 166.674 326.423L166.672 326.426C164.809 328.693 163.567 330.212 163.477 334.36ZM204.779 388.919C204.612 388.445 204.472 388.046 204.363 387.707L204.35 387.702C201.962 388.451 200.79 389.927 198.836 393.474C196.8 397.184 193.612 399.26 189.864 399.317H189.706C186.409 399.317 183.037 397.713 180.061 394.836C180.333 396.995 179.978 400.722 178.937 410.033C176.26 429.588 178.146 432.239 179.968 434.798L179.969 434.799L179.972 434.804C180.647 435.75 181.348 436.732 181.843 438.421C191.1 468.127 190.461 475.318 189.785 482.932L189.785 482.936C189.201 489.493 190.803 490.638 190.821 490.647C191.053 490.753 191.167 490.938 191.211 491.189L191.215 491.211C191.27 491.537 191.809 494.745 191.426 497.781C189.767 507.408 191.51 508.408 194.152 509.924L194.583 510.171C197.383 511.77 199.596 513.035 199.512 515.476C199.043 521.23 205.32 523.072 205.382 523.09C205.579 523.147 205.746 523.279 205.847 523.455C207.533 526.412 209.411 528.046 211.426 528.315C213.955 528.65 215.93 526.685 215.952 526.663C216.242 526.368 216.716 526.355 217.023 526.628C217.66 527.192 218.257 527.434 218.88 527.364C220.008 527.24 220.834 526.108 220.842 526.095C221.036 525.83 221.369 525.707 221.685 525.795C222.234 525.949 222.691 525.914 223.073 525.694C223.81 525.266 224.078 524.262 224.078 524.253C224.17 523.896 224.464 523.654 224.864 523.662C225.21 523.68 225.465 523.601 225.636 523.433C225.922 523.16 225.983 522.658 225.983 522.486C225.983 522.059 226.321 521.706 226.747 521.697C227.133 521.688 227.66 521.583 227.958 521.129C228.209 520.75 228.498 519.807 227.651 517.758C225.878 513.823 222.607 511.233 219.719 508.95C219.595 508.853 219.471 508.752 219.348 508.655C219.049 508.417 218.755 508.184 218.472 507.955C216.238 506.139 215.878 505.461 215.39 504.324C215.228 503.941 215.039 503.5 214.679 502.896C214.417 502.451 213.997 501.782 213.494 500.98L213.283 500.645C211.242 497.397 208.16 492.485 207.559 490.484C207.537 490.418 207.524 490.352 207.524 490.282C207.449 487.858 207.133 485.893 206.361 481.284C205.326 475.693 206.352 467.066 207.439 457.932L207.445 457.879C207.862 454.38 208.292 450.763 208.608 447.278C214.173 415.458 207.445 396.452 204.91 389.291L204.907 389.284C204.863 389.158 204.821 389.036 204.779 388.919ZM203.611 381.997C203.563 380.752 203.518 379.575 203.266 378.185C203.138 377.476 202.985 376.939 202.822 376.37L202.821 376.364C202.321 374.603 201.756 372.612 201.593 364.953C200.939 365.848 200.18 366.54 199.28 366.989C197.515 367.87 195.443 367.698 192.954 366.474C192.432 366.218 192.032 366.152 191.769 366.275C191.047 366.618 190.621 368.481 190.21 370.282L190.203 370.31C189.251 374.482 187.948 380.19 181.321 380.3H181.181C175.215 380.3 171.497 373.81 169.306 367.606C170.439 377.114 173.371 382.098 175.768 386.165L175.799 386.217C176.209 386.916 176.602 387.587 176.975 388.257L176.984 388.275C177.001 388.307 177.019 388.338 177.036 388.369C177.066 388.424 177.096 388.477 177.124 388.531C180.535 394.307 185.237 397.757 189.71 397.757H189.846C193.011 397.709 195.724 395.924 197.48 392.725C199.565 388.94 201.014 387.09 203.99 386.187C203.713 384.614 203.661 383.301 203.612 382.027L203.611 381.997ZM198.841 253.518C197.985 250.116 196.558 240.674 195.386 231.584L195.39 231.58C185.781 238.321 183.367 260.273 181.229 279.717C180.469 286.639 179.749 293.178 178.749 298.619C175.049 318.702 170.739 323.948 167.89 327.415L167.888 327.418C165.163 330.735 163.92 332.247 166.361 345.959L166.44 346.395C166.637 347.364 166.821 348.338 167.001 349.307L167.107 349.836C167.116 349.88 167.12 349.929 167.12 349.973C167.498 352.079 167.831 354.185 168.121 356.287C168.121 356.293 168.123 356.3 168.125 356.306C168.127 356.313 168.13 356.32 168.13 356.326C168.16 356.551 171.365 378.731 181.189 378.731H181.299C186.707 378.639 187.761 374.021 188.687 369.946C189.249 367.479 189.692 365.531 191.097 364.857C191.813 364.513 192.669 364.583 193.639 365.064C195.663 366.064 197.282 366.231 198.582 365.584C201.799 363.982 203.069 357.486 204.414 350.601L204.456 350.39C204.76 348.83 205.075 347.224 205.421 345.641C211.339 308.224 203.31 270.499 199.104 254.531C198.99 254.1 198.902 253.76 198.841 253.518ZM192.881 209.654C191.736 201.109 190.552 192.274 194.846 183.707V183.712C203.437 167.105 205.724 156.654 206.167 154.239C205.663 152.723 205.272 151.168 205.017 149.604C204.609 147.061 203.678 141.267 205.605 136.844C204.609 137.791 203.709 138.826 202.849 139.875C202.274 140.576 201.672 141.245 201.049 141.889C196.532 146.898 191.273 151.454 186.615 155.482L186.582 155.511C180.722 160.579 175.662 164.956 175.272 167.656C175.232 168.061 175.197 168.475 175.171 168.911C175.083 171.7 175.755 175.463 176.519 179.728C177.743 186.567 179.131 194.322 178.077 201.539C175.926 216.277 181.001 222.979 183.283 225.178C186.053 227.848 190.772 229.117 194.982 228.381C194.42 223.812 193.951 219.538 193.683 216.418C193.494 214.22 193.2 212.012 192.884 209.677L192.881 209.654ZM224.885 175.296L224.899 175.309C232.164 184.209 238.841 185.359 242.669 183.465C246.786 181.425 251.993 174.23 240.605 148.93C236.857 141.809 234.714 139.549 233.454 138.223C233.213 137.967 232.989 137.729 232.783 137.491C231.475 136.61 230.074 135.83 228.621 135.174C227.348 134.601 226.128 134.169 224.995 133.839C224.969 133.834 224.947 133.825 224.925 133.817C222.041 132.984 219.732 132.812 218.674 132.781H218.667C215.044 132.675 211.614 132.575 209.148 134.592C204.76 138.178 206.066 146.29 206.558 149.346L206.558 149.348C206.769 150.626 207.076 151.904 207.462 153.151C207.59 153.239 207.695 153.358 207.756 153.508C209.539 157.9 212.581 160.645 214.596 162.461C214.655 162.515 214.714 162.567 214.771 162.619C214.973 162.802 215.163 162.974 215.338 163.135C216.356 164.087 220.544 169.511 224.885 175.296ZM270.838 232.474C270.86 232.496 270.878 232.518 270.895 232.54H270.891C271.523 233.373 272.857 235.197 273.845 237.048C276.312 238.044 278.735 238.11 280.535 237.211C282.598 236.18 284.17 233.708 284.675 230.734C284.324 229.985 283.937 229.223 283.507 228.443C281.867 224.888 279.994 220.235 278.009 215.302L277.941 215.132C273.108 203.103 267.089 188.131 261.22 181.046C257.704 176.798 255.171 174.141 253.318 172.203L253.299 172.183C250.712 169.468 249.286 167.971 248.173 165.276C248.046 164.972 247.919 164.673 247.792 164.377C251.145 178.226 246.861 183.134 243.353 184.87C242.168 185.456 240.759 185.8 239.174 185.8C236.606 185.8 233.586 184.892 230.338 182.641C232.515 185.602 234.346 188.131 235.307 189.514C237.405 192.903 238.525 195.26 239.605 197.542L239.606 197.546C241.366 201.259 243.026 204.762 248.797 211.995C254.1 218.635 257.734 221.424 261.584 224.371C264.372 226.504 267.252 228.711 270.838 232.474ZM290.61 280.069C290.619 279.545 290.671 278.981 290.781 278.382H290.772C291.492 274.377 291.343 273.764 290.895 271.958L290.88 271.895C290.657 270.984 290.352 269.738 290.057 267.706C289.749 266.401 289.28 265.82 288.63 265.022C288.103 264.37 287.493 263.612 286.878 262.313C287.067 263.881 287.532 264.824 287.963 265.692L287.967 265.7C288.461 266.698 288.972 267.728 288.937 269.384C288.911 270.81 289.011 271.781 289.107 272.716L289.111 272.75C289.25 274.121 289.383 275.424 289.012 277.73C288.88 278.562 288.99 279.175 289.345 279.545C289.666 279.88 290.171 280.021 290.61 280.069ZM296.826 275.24V275.143L296.821 275.134C296.918 273.672 297.076 271.217 296.224 264.124C295.965 261.929 295.904 260.651 295.86 259.722C295.798 258.423 295.036 256.337 293.573 253.461L293.494 253.302C290.447 247.532 289.037 243.082 287.794 239.159L287.778 239.11C287.133 237.07 286.505 235.096 285.693 233.065C284.828 235.598 283.252 237.594 281.233 238.603C280.175 239.132 278.95 239.396 277.647 239.396C276.707 239.396 275.724 239.26 274.727 238.987C275.096 240.057 275.202 241.009 274.793 241.621C272.704 244.507 273.74 247.794 274.881 249.191C276.15 250.747 276.808 252.839 277.326 256.911C277.441 258.214 277.494 259.426 277.545 260.595L277.55 260.704C277.774 265.873 278.09 267.864 280.54 267.864H280.632C281.084 267.856 281.448 267.675 281.782 267.296C283.533 265.309 283.331 259.158 283.103 256.955C283.077 256.704 283.178 256.452 283.367 256.285C283.555 256.118 283.814 256.056 284.06 256.113C284.148 256.135 286.137 256.638 287.361 259.153C287.381 259.185 287.393 259.223 287.405 259.259L287.41 259.272C288.225 262.041 289.085 263.099 289.839 264.028L289.842 264.031L289.849 264.04C290.539 264.891 291.19 265.693 291.593 267.41C291.896 269.481 292.181 270.645 292.414 271.579C292.892 273.517 293.09 274.324 292.313 278.655C291.988 280.483 292.186 281.814 292.906 282.612C293.463 283.229 294.253 283.418 294.767 283.471C295.614 280.479 296.76 276.188 296.826 275.24Z" fill="#0D173D"/>
</g>
<defs>
<clipPath id="clip0_1672_36740">
<rect width="296.626" height="530" fill="white" transform="translate(2)"/>
</clipPath>
</defs>
</svg>
