<svg width="300" height="530" viewBox="0 0 300 530" fill="none" xmlns="http://www.w3.org/2000/svg">
<g clip-path="url(#clip0_1672_36741)">
<path d="M202.578 356.817C203.286 354.123 203.89 351.36 204.406 348.551L204.402 348.547C211.331 310.891 201.955 264.861 198.331 254.313C196.365 248.597 196.472 246.968 196.595 245.095L196.596 245.093C196.598 245.046 196.601 244.999 196.604 244.952C196.633 244.48 196.663 243.989 196.642 243.38V243.357C196.042 238.327 190.324 233.155 184.391 229.553C186.849 232.808 187.984 236.981 189.326 241.917L189.327 241.922L189.41 242.222C189.938 244.141 190.483 246.119 191.155 248.225C194.826 259.693 194.449 268.767 190.051 275.202C184.768 282.918 175.304 284.292 171.483 284.53C170.929 284.561 170.371 284.599 169.825 284.638C169.748 284.646 169.663 284.653 169.586 284.653C169.43 284.669 169.273 284.678 169.113 284.686C169.038 284.69 168.963 284.695 168.886 284.7C168.144 284.754 167.409 284.799 166.678 284.838H166.616C165.119 284.977 163.711 285.284 162.961 286.135C162.438 286.724 162.23 287.571 162.315 288.729C162.892 296.196 161.235 299.352 159.631 302.407L159.627 302.414C157.604 306.272 155.694 309.914 158.679 322.837C159.271 325.026 159.867 327.15 160.46 329.255C162.249 335.621 163.977 341.786 165.481 349.017C165.658 349.132 165.781 349.317 165.812 349.532C168.998 371.168 172.41 379.996 177.593 379.996C183.433 379.996 183.764 369.748 183.957 363.629C184.08 359.638 184.134 357.987 185.315 357.78C186.346 357.61 187.173 358.391 190.336 366.361C192.883 372.784 194.795 373.561 195.699 373.446C198.211 373.146 200.551 366.835 202.247 359.873C202.263 358.799 202.37 357.783 202.578 356.817Z" fill="white"/>
<path d="M140.873 322.84C140.873 322.825 140.881 322.794 140.881 322.794L140.877 322.798C143.839 309.91 141.939 306.269 139.918 302.418L139.917 302.414C138.313 299.36 136.656 296.204 137.225 288.736C137.314 287.578 137.102 286.735 136.579 286.143C135.825 285.292 134.428 284.992 132.939 284.853C132.893 284.846 132.855 284.846 132.808 284.846C132.116 284.807 131.412 284.761 130.704 284.707H130.642C130.277 284.684 129.915 284.669 129.569 284.638C129.549 284.638 129.531 284.636 129.513 284.634C129.497 284.632 129.48 284.63 129.461 284.63C129.303 284.62 129.145 284.609 128.987 284.598C128.677 284.576 128.368 284.553 128.057 284.538C124.233 284.3 114.768 282.925 109.497 275.21C105.092 268.775 104.715 259.701 108.385 248.233C109.101 246.012 109.666 243.942 110.212 241.929L110.22 241.899C111.568 236.975 112.706 232.81 115.156 229.561C109.185 233.186 103.437 238.389 102.891 243.449V243.472C102.884 244.032 102.913 244.492 102.942 244.932C102.945 244.989 102.949 245.045 102.952 245.1L102.954 245.118C103.068 246.985 103.169 248.621 101.217 254.321C97.3271 265.658 86.7892 317.961 96.9655 356.79C97.181 357.772 97.2887 358.795 97.3042 359.877C99.0011 366.839 101.344 373.15 103.845 373.45C104.756 373.565 106.661 372.792 109.208 366.365C112.371 358.399 113.209 357.614 114.229 357.783C115.41 357.991 115.464 359.641 115.595 363.63L115.595 363.633C115.787 369.751 116.11 380 121.951 380C127.13 380 130.546 371.172 133.74 349.536C133.77 349.321 133.894 349.136 134.063 349.028C135.575 341.789 137.302 335.632 139.091 329.259C139.684 327.154 140.28 325.03 140.873 322.84Z" fill="white"/>
<path d="M173.253 223.065C168.036 221.922 161.287 222.145 156.243 225.897C152.996 228.314 150.826 231.87 149.772 236.522C148.721 231.87 146.555 228.318 143.308 225.897C138.264 222.141 131.519 221.922 126.298 223.065C128.961 219.763 128.761 215.041 128.553 210.123C128.33 204.87 128.084 198.905 131.008 193.325C140.003 176.169 144.162 165.879 143.535 155.422C145.639 161.056 147.105 163.673 149.768 163.673C152.43 163.673 153.896 161.056 155.993 155.43C155.377 165.886 159.54 176.165 168.528 193.325C171.452 198.905 171.206 204.87 170.983 210.123C170.783 215.045 170.583 219.767 173.245 223.065H173.253Z" fill="white"/>
<path d="M149.006 270.484V243.923H149.002C149.002 236.045 146.774 230.396 142.385 227.125C137.198 223.261 129.961 223.492 124.925 225.004C124.136 225.239 123.401 225.501 122.717 225.778C122.709 225.785 122.701 225.785 122.693 225.793C122.436 225.901 122.182 226.009 121.935 226.124C121.917 226.13 121.898 226.138 121.88 226.146C121.852 226.158 121.825 226.172 121.797 226.186C115.27 229.267 113.799 234.643 111.707 242.287L111.599 242.683C111.075 244.599 110.535 246.58 109.855 248.695C106.338 259.689 106.646 268.309 110.766 274.336C115.66 281.49 124.556 282.772 128.149 282.995C128.361 283.01 128.571 283.024 128.782 283.037C128.992 283.05 129.203 283.064 129.415 283.08H129.522C129.907 283.118 130.319 283.141 130.742 283.164H130.773C130.831 283.168 130.89 283.171 130.95 283.174C131.026 283.179 131.104 283.183 131.181 283.187L131.259 283.191C131.859 283.221 132.481 283.251 133.101 283.31C133.124 283.31 133.155 283.318 133.178 283.318C138.314 283.603 142.95 283.472 145.797 280.809C147.964 278.788 149.006 275.414 149.006 270.484Z" fill="white"/>
<path d="M171.398 282.995C174.996 282.772 183.891 281.49 188.789 274.336H188.785C192.906 268.309 193.214 259.689 189.697 248.695C188.979 246.46 188.409 244.382 187.859 242.375L187.846 242.33C185.761 234.66 184.287 229.272 177.747 226.186C177.7 226.163 177.655 226.14 177.608 226.124C177.366 226.009 177.112 225.901 176.85 225.793C176.843 225.785 176.835 225.785 176.827 225.778C176.146 225.504 175.407 225.243 174.619 225.004C169.586 223.492 162.353 223.265 157.159 227.125C152.765 230.396 150.542 236.045 150.542 243.923V270.484C150.542 275.414 151.592 278.788 153.75 280.809C156.613 283.487 161.291 283.603 166.458 283.311C166.474 283.311 166.489 283.308 166.505 283.307C166.52 283.304 166.535 283.303 166.55 283.303C167.14 283.251 167.727 283.221 168.296 283.191L168.809 283.164C168.882 283.16 168.955 283.155 169.029 283.149C169.101 283.143 169.175 283.137 169.248 283.134C169.359 283.126 169.466 283.119 169.574 283.114C169.676 283.108 169.778 283.102 169.887 283.095C169.916 283.091 169.946 283.089 169.975 283.088C170.006 283.085 170.036 283.084 170.063 283.08H170.132C170.344 283.064 170.555 283.05 170.767 283.037C170.977 283.024 171.187 283.01 171.398 282.995Z" fill="white"/>
<path d="M206.474 136.767L206.487 136.704L206.483 136.697L206.489 136.671C207.676 130.968 208.903 125.072 206.306 123.37H206.298C204.294 122.438 202.316 121.242 200.466 119.691C197.449 117.166 194.525 114.896 191.686 112.698L191.53 112.577C187.185 109.205 183.062 106.003 179.05 102.196L178.951 102.312C170.048 118.856 164.623 131.89 161.029 141.449C160.498 142.885 160.002 144.236 159.54 145.517C159.509 145.594 159.486 145.663 159.463 145.74C154.812 160.09 158.113 170.139 169.886 192.602C173.01 198.551 172.748 204.731 172.518 210.18V210.19C172.256 216.635 172.047 221.784 177.415 224.354H177.423C177.727 224.485 178.019 224.608 178.304 224.746L178.466 224.816C183.902 227.021 191.686 231.735 195.66 237.3C193.275 227.198 191.64 208.464 191.732 202.776C191.734 202.608 191.736 202.436 191.737 202.258C191.74 201.816 191.742 201.343 191.747 200.833C191.77 194.472 191.824 182.627 196.937 174.495C201.959 166.514 205.379 151.713 205.856 149.539C204.396 146.756 205.405 141.905 206.474 136.767Z" fill="white"/>
<path d="M127.024 210.147C126.801 204.708 126.549 198.543 129.657 192.609L129.661 192.617C141.434 170.154 144.743 160.102 140.084 145.756C140.061 145.678 140.038 145.61 140.007 145.532C139.545 144.251 139.049 142.9 138.518 141.465C134.924 131.913 129.507 118.879 120.612 102.343L120.496 102.212C116.473 106.034 112.333 109.245 107.966 112.633L107.861 112.714C105.03 114.908 102.098 117.182 99.0892 119.706C97.2311 121.265 95.2378 122.473 93.2256 123.401C93.2181 123.401 93.2102 123.408 93.2027 123.416C90.6632 125.152 91.8828 131.024 93.064 136.711V136.712C94.1414 141.869 95.161 146.752 93.695 149.546C94.1798 151.716 97.6002 166.517 102.621 174.503C107.72 182.612 107.777 194.424 107.807 200.799V200.84C107.807 201.556 107.815 202.199 107.823 202.784C107.908 208.472 106.273 227.206 103.887 237.307C107.915 231.677 115.837 226.913 121.27 224.739C121.288 224.73 121.306 224.72 121.326 224.713C121.34 224.708 121.354 224.703 121.37 224.7C121.605 224.585 121.851 224.477 122.104 224.377C122.104 224.377 122.107 224.375 122.11 224.372C122.113 224.371 122.116 224.369 122.12 224.369C127.51 221.791 127.296 216.653 127.027 210.217L127.024 210.147Z" fill="white"/>
<path d="M175.946 104.709C167.985 119.825 163.007 131.871 159.629 140.86C159.621 140.868 159.621 140.884 159.613 140.891C159.067 142.234 158.586 143.539 158.163 144.813V144.82C157.478 146.718 156.866 148.438 156.32 149.989C153.465 158.082 152.038 162.142 149.772 162.142C147.506 162.142 146.078 158.082 143.223 149.989C142.654 148.376 142.027 146.587 141.311 144.617C141.311 144.609 141.303 144.593 141.296 144.586C140.934 143.504 140.53 142.388 140.076 141.253C140.053 141.199 140.03 141.145 140.007 141.091C139.984 141.022 139.96 140.961 139.93 140.891C136.56 131.902 131.573 119.848 123.613 104.717C124.694 105.233 125.802 105.433 127.037 105.433C128.618 105.433 130.408 105.11 132.577 104.717C136.436 104.016 141.734 103.059 149.768 103.059C157.802 103.059 163.099 104.016 166.966 104.717C169.14 105.11 170.917 105.433 172.499 105.433C173.734 105.433 174.853 105.233 175.938 104.709H175.946Z" fill="white"/>
<path d="M191.878 92.8949C184.857 93.9301 180.744 98.0708 178.462 100.58C178.293 100.757 178.147 100.919 178.001 101.08L177.785 101.319C177.785 101.319 177.762 101.35 177.754 101.357C174.838 104.582 172.61 104.182 167.239 103.208C163.319 102.493 157.944 101.527 149.772 101.527C141.6 101.527 136.225 102.493 132.304 103.208C126.933 104.182 124.713 104.582 121.797 101.357C121.789 101.35 121.774 101.334 121.766 101.319L121.543 101.08C121.405 100.927 121.258 100.765 121.104 100.595L121.089 100.58L121.043 100.534C118.757 98.0169 114.656 93.9147 107.673 92.8949L107.742 92.8489C109.139 91.9828 111.051 90.7974 112.394 90.1782C113.252 89.7855 115.264 88.9503 117.384 88.0498C119.566 87.1377 121.935 86.1449 123.678 85.387C123.686 85.387 123.686 85.379 123.694 85.379C123.709 85.379 123.717 85.379 123.732 85.3715C132.235 83.047 141.307 83.505 146.182 83.7435C146.706 83.7744 147.171 83.7974 147.594 83.8129C149.037 83.8743 150.511 83.8743 151.961 83.8129C152.377 83.7974 152.85 83.7744 153.373 83.7435C158.24 83.505 167.313 83.043 175.823 85.3715H175.854C177.597 86.1294 179.974 87.1377 182.163 88.0498C184.291 88.9464 186.292 89.7855 187.161 90.1782C188.504 90.8014 190.416 91.9828 191.805 92.8489C191.828 92.8639 191.859 92.8794 191.882 92.8949H191.878Z" fill="white"/>
<path d="M107.316 111.188C111.547 107.899 115.573 104.768 119.465 101.076C116.795 98.2289 111.913 93.9376 103.525 94.207C103.523 94.207 103.519 94.2075 103.513 94.2084C103.496 94.2106 103.463 94.215 103.417 94.215C101.582 94.4151 76.5083 97.7015 70.8447 127.31C72.2493 126.402 74.4347 125.267 76.6928 125.144C76.8937 125.137 77.1234 125.126 77.3706 125.114C77.4223 125.111 77.4748 125.108 77.5278 125.106C81.5483 124.928 90.9669 124.505 98.0964 118.525C101.136 115.977 104.075 113.695 106.922 111.494L107.316 111.188Z" fill="white"/>
<path d="M222.858 125.144C225.12 125.267 227.302 126.406 228.714 127.31C223.058 97.7554 198.069 94.4305 196.142 94.215C196.072 94.215 196.026 94.207 196.026 94.207H196.018C187.631 93.9531 182.764 98.2439 180.094 101.076C184.069 104.843 188.169 108.026 192.501 111.389L192.636 111.494C195.484 113.695 198.423 115.977 201.455 118.525C203.201 119.983 205.083 121.122 206.987 121.996C212.874 124.697 218.991 124.974 222.023 125.106C222.092 125.109 222.16 125.112 222.226 125.116C222.456 125.127 222.666 125.138 222.858 125.144Z" fill="white"/>
<path d="M205.122 449.025C210.778 448.685 212.174 436.878 212.79 425.341L212.793 425.337C212.609 414.096 210.277 406.23 208.165 399.657C208.15 399.615 208.136 399.574 208.123 399.534C208.109 399.493 208.096 399.453 208.08 399.411C208.045 399.296 208.008 399.181 207.971 399.067C207.912 398.884 207.852 398.701 207.796 398.522C207.442 397.575 206.945 396.701 206.253 396.517C204.795 396.117 202.259 398.572 200.035 400.746L200.027 400.754C196.621 404.069 192.765 407.821 189.443 405.352C187.181 403.671 184.557 403.267 182.422 404.279C180.013 405.422 178.54 408.239 178.37 412.003C178.347 412.372 178.078 412.672 177.724 412.726C175.819 431.036 175.95 436.901 177.239 441.13C177.247 441.146 177.247 441.153 177.247 441.169C181.22 451.56 185.42 450.69 186.806 450.407L186.812 450.403C190.336 449.665 190.825 444.851 191.217 440.984C191.528 437.859 191.783 435.396 193.625 435.243C195.073 435.113 196.066 437.149 197.567 440.229L197.6 440.295C199.389 443.985 201.836 449.025 204.952 449.025H205.122Z" fill="white"/>
<path d="M122.351 441.073C122.351 441.057 122.367 441.034 122.367 441.034L122.371 441.038C123.613 436.809 123.736 430.898 121.839 412.734C121.486 412.688 121.208 412.387 121.193 412.01C121.024 408.247 119.542 405.43 117.134 404.287C115.003 403.27 112.375 403.678 110.12 405.36C106.804 407.825 102.954 404.088 99.5433 400.776L99.5204 400.754L99.4926 400.727C97.2719 398.563 94.7625 396.118 93.3027 396.524C92.6567 396.701 92.1754 397.487 91.8217 398.368L91.7987 398.437C91.683 398.799 91.5598 399.164 91.4366 399.541C89.3092 406.138 86.9468 414.038 86.7622 425.337V425.391C87.3853 436.913 88.7899 448.689 94.43 449.029C97.6314 449.21 100.132 444.065 101.96 440.299L101.998 440.219C103.489 437.147 104.481 435.101 105.934 435.247C107.765 435.399 108.017 437.841 108.338 440.945L108.342 440.988L108.345 441.012C108.737 444.878 109.223 449.674 112.74 450.407L112.747 450.412C114.143 450.694 118.345 451.56 122.313 441.142C122.316 441.136 122.318 441.13 122.32 441.126C122.323 441.119 122.327 441.113 122.336 441.104C122.336 441.096 122.344 441.088 122.344 441.088L122.351 441.073Z" fill="white"/>
<path d="M245.612 170.031C247.055 170.462 248.698 170.939 249.221 170.4H249.217C249.533 170.07 249.844 169.057 249.079 165.979C248.669 164.942 248.412 163.922 248.168 162.955L248.136 162.831C248.128 162.808 248.121 162.777 248.121 162.754C248.108 162.721 248.1 162.682 248.093 162.647L248.09 162.631C247.782 161.391 247.478 160.218 246.87 159.151C245.123 156.1 242.69 150.805 242.259 149.867C242.225 149.795 242.204 149.748 242.196 149.731C242.18 149.7 242.165 149.662 242.157 149.623C238.891 138.182 229.641 129.924 229.295 129.615H229.288L229.249 129.577L229.245 129.574C228.829 129.246 225.784 126.844 222.77 126.676C222.633 126.666 222.481 126.66 222.318 126.653C222.203 126.648 222.083 126.644 221.958 126.637L221.921 126.636C219.204 126.512 214.151 126.282 208.896 124.417C209.979 127.467 208.976 132.286 207.997 136.992L207.992 137.016L207.99 137.024C206.99 141.82 205.957 146.776 207.307 149L207.322 149.015V149.023L207.538 149.354C210.927 154.707 219.954 168.915 223.462 172.517C224.328 173.406 225.055 174.183 225.771 174.972C232.666 181.191 235.482 181.93 236.64 181.461C237.952 180.926 238.114 178.174 238.252 175.757C238.398 173.156 238.545 170.697 240.026 169.777C241.553 168.834 243.615 169.438 245.612 170.031Z" fill="#1570EF"/>
<path d="M92.2177 149.042L92.2332 149.019H92.2292C93.5949 146.799 92.5564 141.827 91.5523 137.02C90.5711 132.306 89.567 127.476 90.6559 124.421C85.4008 126.286 80.3484 126.516 77.6306 126.639L77.5935 126.641C77.4663 126.647 77.3453 126.652 77.2296 126.657C77.0684 126.664 76.9174 126.67 76.7739 126.679C73.7421 126.849 70.6949 129.266 70.3028 129.581L70.2643 129.619H70.2564C69.9217 129.912 60.6572 138.182 57.3869 149.627C57.379 149.665 57.3635 149.704 57.3481 149.735C57.2403 149.981 54.5552 155.869 52.6812 159.155C52.0696 160.225 51.7618 161.399 51.4541 162.634L51.4505 162.651C51.4439 162.686 51.4364 162.725 51.4232 162.758C51.4232 162.781 51.4156 162.812 51.4077 162.835L51.3958 162.882C51.1573 163.85 50.9048 164.872 50.4884 165.913L50.4804 165.928C49.6957 169.053 50.0112 170.066 50.3267 170.404C50.8575 170.939 52.4926 170.466 53.9357 170.035C55.9285 169.442 57.9945 168.838 59.5299 169.781C61.0038 170.696 61.1482 173.136 61.301 175.723L61.3036 175.761L61.3045 175.781C61.4427 178.193 61.5995 180.927 62.9154 181.464C64.0696 181.938 66.8859 181.187 73.777 174.976C74.4888 174.187 75.2196 173.41 76.0855 172.521C79.5982 168.919 88.6167 154.707 92.0102 149.358L92.2177 149.042Z" fill="#1570EF"/>
<path d="M280.673 242.295C282.624 241.54 284.336 239.216 285.187 236.183L285.183 236.176C284.975 235.868 284.775 235.533 284.59 235.095C284.267 234.325 283.59 232.224 282.57 229.037L282.472 228.731C280.396 222.269 276.992 211.674 272.913 201.041C266.65 184.705 255.384 173.406 252.083 170.335C251.71 169.985 251.372 169.638 251.079 169.284C251.044 170.262 250.79 170.974 250.321 171.459C249.151 172.678 247.128 172.082 245.177 171.505C243.58 171.027 241.776 170.497 240.826 171.081C240.029 171.577 239.901 173.801 239.786 175.784L239.783 175.842L239.781 175.866C239.605 178.875 239.423 181.979 237.22 182.88C236.851 183.034 236.44 183.111 235.993 183.111C234.543 183.111 232.661 182.299 230.237 180.602C231.576 182.4 233.235 184.678 235.466 187.749L235.658 188.002C238.452 191.851 240.81 195.957 243.303 200.31L243.324 200.346C247.265 207.215 251.343 214.324 257.358 220.456C267.081 230.442 271.447 236.861 273.313 240.882C275.999 242.518 278.739 243.041 280.673 242.295Z" fill="white"/>
<path d="M64.0848 187.749C66.3099 184.687 67.9649 182.413 69.2905 180.618C66.88 182.31 65.0099 183.119 63.5541 183.119C63.1116 183.119 62.7036 183.042 62.3345 182.888C60.1258 181.984 59.9412 178.867 59.7721 175.85C59.6564 173.852 59.5257 171.589 58.7216 171.089C57.7788 170.508 55.9746 171.035 54.3779 171.512L54.3735 171.514C52.4165 172.091 50.3989 172.686 49.2261 171.467C48.7682 170.982 48.5066 170.273 48.4681 169.307C48.1719 169.65 47.841 169.996 47.4716 170.342C44.1628 173.413 32.8975 184.712 26.6338 201.048C22.5562 211.688 19.1467 222.294 17.0708 228.752L16.9767 229.045C15.961 232.231 15.2877 234.336 14.9645 235.102C14.7798 235.537 14.572 235.876 14.3643 236.183C15.2145 239.216 16.9267 241.544 18.885 242.295C20.8126 243.041 23.5597 242.518 26.2452 240.882C28.1074 236.853 32.4743 230.442 42.1929 220.456C48.2231 214.316 52.3083 207.193 56.2501 200.318L56.2554 200.31C58.7485 195.957 61.1069 191.847 63.9003 188.002L64.0848 187.749Z" fill="white"/>
<path d="M293.493 266.213C293.267 263.965 292.182 260.459 291.035 256.745C289.808 252.774 288.538 248.668 288.526 246.624C288.738 238.562 287.634 237.027 286.66 235.668C286.395 235.303 286.168 234.987 285.983 234.537C285.687 233.829 284.983 231.639 284.013 228.61C281.947 222.164 278.488 211.374 274.333 200.529C267.95 183.881 256.473 172.375 253.11 169.242C251.795 168.019 251.037 166.771 250.525 165.521C250.286 164.574 249.967 163.516 249.567 162.323C249.244 161.018 248.893 159.675 248.178 158.421C246.427 155.357 243.869 149.773 243.596 149.177C240.383 137.994 231.965 130.012 230.48 128.673C225.066 95.3732 196.414 92.7258 196.126 92.7024C196.122 92.7024 196.114 92.7024 196.11 92.7024C196.102 92.7024 196.099 92.7024 196.091 92.7024C195.518 92.6834 194.964 92.6874 194.421 92.7024C194.352 92.6256 194.267 92.5602 194.168 92.5138C193.968 92.4215 193.302 92.0099 192.598 91.5713C191.166 90.6822 189.208 89.4663 187.773 88.8082C186.884 88.4041 184.96 87.5958 182.729 86.6608C179.493 85.3023 175.823 83.7631 174.511 83.1085C172.683 82.1965 169.765 79.1961 168.938 78.3958C168.703 75.8289 169.24 64.2625 169.159 61.6125C170.123 55.65 173.133 53.8833 172.029 48.1417C174.457 47.2583 176.665 40.6333 177.328 34.6708C177.945 29.1092 176.33 29.6279 174.48 28.7083C174.237 26.0583 174.507 23.1054 174.48 22.2395C174.049 8.60101 170.205 6.61528 165.342 4.09462C165.038 3.93684 164.731 3.77905 164.419 3.61357C161.337 1.98188 159.867 2.14352 158.313 2.31285C157.132 2.44369 155.912 2.57453 153.642 1.93956C143.7 -2.77081 137.687 2.02036 132.854 5.87252L132.701 5.9957C131.789 6.72304 130.938 7.16174 130.115 7.58888C126.989 11.0417 125.885 15.9 124.781 20.9792C124.67 28.1294 124.686 24.4389 125.001 29.5917C124.005 30.8195 121.718 29.0697 121.69 35.3333C121.667 40.3603 121.249 47.4792 126.106 49.2458C127.651 58.5208 130.08 55.65 130.877 61.6125C130.85 62.1129 131.127 75.6121 130.877 78.3443C130.045 79.145 126.829 82.189 125.001 83.105C123.69 83.7631 120.015 85.3023 116.776 86.6608C114.548 87.5958 112.624 88.4001 111.739 88.8082C110.308 89.4623 108.35 90.6782 106.918 91.5673C106.215 92.0059 105.545 92.4215 105.345 92.5103C105.245 92.5562 105.16 92.6216 105.091 92.6989C104.549 92.6794 103.994 92.6755 103.421 92.6989C103.414 92.6989 103.41 92.6989 103.402 92.6989C103.398 92.6989 103.39 92.6989 103.387 92.6989C103.098 92.7218 74.4461 95.3696 69.0325 128.669C67.5515 130.008 59.133 137.99 55.9167 149.173C55.6433 149.77 53.0849 155.353 51.3345 158.417C50.6187 159.671 50.2686 161.014 49.9454 162.323C49.5453 163.512 49.2298 164.57 48.9913 165.513C48.4796 166.764 47.7178 168.015 46.402 169.234C43.0354 172.367 31.5623 183.878 25.1794 200.521C21.0241 211.358 17.5653 222.145 15.503 228.591C14.5296 231.627 13.8255 233.821 13.5293 234.529C13.3408 234.976 13.1137 235.295 12.8521 235.661C11.8787 237.019 10.7707 238.555 10.9861 246.59C10.9707 248.656 9.70491 252.763 8.47757 256.738C7.33103 260.448 6.24989 263.953 6.01904 266.201C6.01904 266.228 6.01904 266.251 6.01904 266.278C6.01904 268.541 6.74236 271.373 7.4426 274.109C7.88506 275.833 8.33906 277.615 8.59684 279.201C9.05469 282.002 10.8476 283.314 12.9252 284.835C14.2064 285.774 15.6569 286.836 17.0266 288.433C17.2998 288.752 17.7769 288.791 18.1 288.521C18.1655 288.467 19.7352 287.136 19.7929 285.008C19.7968 284.862 19.7852 284.711 19.7776 284.565C20.3585 284.096 21.3935 283.087 21.6974 281.633C21.9475 280.44 21.6628 279.228 20.8472 278.031C20.6355 277.723 20.447 277.449 20.2739 277.203C18.8849 275.225 18.858 275.187 19.7083 271.927C20.0738 270.53 20.1854 269.28 20.2816 268.175C20.4008 266.828 20.5124 265.654 21.0318 264.55C21.4281 264.288 21.8552 263.992 22.3284 263.642C22.4285 266.228 22.971 271.069 25.5526 272.47C26.88 273.19 28.4805 272.912 30.308 271.646C30.4735 271.531 30.5851 271.358 30.6235 271.161C30.6659 270.946 30.9813 268.818 29.2461 260.513C29.0499 259.308 29.2385 258.165 29.4385 256.961C29.9002 254.182 30.4196 251.031 26.5568 246.194C26.4106 245.805 24.9101 240.429 43.2817 221.557C49.4491 215.276 53.5772 208.068 57.5752 201.103C60.0449 196.788 62.3843 192.717 65.1313 188.938L65.3158 188.684C72.4992 178.805 73.6036 177.285 77.1776 173.622C80.5711 170.143 88.4702 157.82 92.5331 151.428C93.622 156.015 96.7805 168.149 101.309 175.349C106.184 183.108 106.234 194.233 106.261 200.883C106.261 201.595 106.268 202.25 106.276 202.834C106.365 208.526 104.706 227.433 102.302 237.335C101.194 241.899 101.309 243.669 101.409 245.228C101.521 246.94 101.617 248.418 99.7545 253.848C96.1071 264.484 86.6581 310.861 93.6101 348.782C93.6101 348.786 93.6101 348.79 93.6101 348.798C93.7642 349.925 94.48 354.871 95.761 360.166C95.7839 362.609 95.3799 365.422 94.907 368.717C94.3184 372.8 93.5911 377.88 93.4679 383.948C93.3756 388.578 91.9714 392.907 90.3478 397.917C90.2052 398.291 90.0705 398.699 89.9513 399.145C87.7889 405.845 85.3961 413.872 85.215 425.368C85.1651 428.592 85.2843 432.083 85.6345 435.901C86.4655 444.93 87.2657 452.978 87.9739 460.071C89.4898 475.317 90.494 485.383 90.1743 488.903C89.8011 492.997 89.2819 495.713 88.7317 498.584C88.5895 499.317 88.4469 500.059 88.3047 500.841C87.6313 501.742 83.7724 506.812 80.3017 509.082C79.6478 509.109 78.0665 509.347 76.6389 511.074C75.7236 511.11 73.5727 511.432 71.9685 513.592C71.572 513.954 69.7368 515.769 70.1868 517.761C70.5215 519.25 71.9989 520.363 74.6422 521.087C76.7317 521.445 79.6902 522.359 82.8222 523.317C83.6338 523.569 84.4533 523.825 85.2574 524.064C86.1348 525.194 90.3862 530 99.0312 530C102.494 530 105.118 529.015 106.838 527.076C109.193 524.417 109.289 520.628 108.958 517.92C108.469 513.928 108.407 507.766 109.238 503.699C109.654 501.662 109.512 500.616 109.343 499.406C109.143 497.957 108.892 496.15 109.45 491.628C110.397 483.96 114.733 466.122 119.681 451.776C120.566 449.206 121.378 447.408 122.093 445.818C125.306 438.698 126.275 436.551 121.531 396.436C121.62 392.434 122.932 390.871 124.752 388.716C127.406 385.564 131.038 381.247 132.704 367.066C134.601 350.918 137.49 340.616 140.553 329.706C141.146 327.59 141.75 325.442 142.35 323.226C142.35 323.222 142.35 323.218 142.35 323.214V323.203C143.177 320.158 144.004 316.991 144.801 313.593C147.863 300.528 148.398 294.201 149.021 286.878C149.229 284.411 149.444 281.894 149.76 278.997C150.075 281.894 150.291 284.411 150.499 286.878C151.118 294.205 151.657 300.532 154.719 313.597C155.516 316.995 156.339 320.158 157.166 323.203V323.218C157.166 323.218 157.174 323.229 157.174 323.233C157.775 325.442 158.375 327.59 158.967 329.702C162.029 340.612 164.919 350.914 166.816 367.066C168.482 381.247 172.114 385.564 174.769 388.716C176.584 390.875 177.9 392.434 177.989 396.436C173.249 436.551 174.218 438.702 177.427 445.823C178.143 447.413 178.955 449.21 179.84 451.781C184.791 466.126 189.127 483.965 190.07 491.632C190.628 496.155 190.378 497.957 190.178 499.41C190.012 500.616 189.866 501.662 190.281 503.703C191.109 507.771 191.051 513.936 190.562 517.925C190.231 520.632 190.332 524.422 192.682 527.08C194.398 529.019 197.026 530.004 200.485 530.004C209.134 530.004 213.381 525.199 214.263 524.068C215.067 523.825 215.882 523.578 216.694 523.326C219.826 522.359 222.785 521.454 224.951 521.074C227.525 520.367 228.998 519.254 229.333 517.766C229.783 515.774 227.948 513.954 227.556 513.596C225.951 511.437 223.801 511.114 222.885 511.079C221.457 509.356 219.872 509.109 219.222 509.087C215.752 506.817 211.892 501.746 211.219 500.845C211.077 500.064 210.935 499.317 210.792 498.58C210.242 495.709 209.723 492.997 209.349 488.907C209.03 485.387 210.03 475.308 211.55 460.053C212.258 452.96 213.055 444.926 213.886 435.908C214.236 432.091 214.359 428.6 214.305 425.375C214.12 413.88 211.727 405.853 209.569 399.153C209.446 398.707 209.315 398.294 209.168 397.921C207.545 392.91 206.141 388.582 206.048 383.952C205.929 377.887 205.198 372.804 204.609 368.72C204.136 365.422 203.732 362.613 203.751 360.181C205.033 354.882 205.748 349.933 205.902 348.805C205.902 348.798 205.902 348.79 205.902 348.782C212.847 310.842 203.405 264.488 199.758 253.856C197.896 248.425 197.992 246.948 198.103 245.235C198.207 243.673 198.323 241.906 197.211 237.342C194.806 227.448 193.151 208.538 193.236 202.842C193.244 202.257 193.248 201.603 193.252 200.891C193.279 194.245 193.325 183.115 198.203 175.361C202.732 168.157 205.895 156.023 206.98 151.44C211.042 157.832 218.941 170.154 222.335 173.633C225.905 177.293 227.009 178.809 234.177 188.669L234.381 188.95C237.128 192.729 239.463 196.804 241.938 201.114C245.931 208.083 250.063 215.288 256.227 221.568C274.602 240.444 273.102 245.82 272.956 246.209C269.093 251.046 269.612 254.198 270.074 256.976C270.274 258.185 270.463 259.324 270.27 260.498C268.527 268.837 268.843 270.965 268.885 271.177C268.923 271.373 269.035 271.546 269.201 271.662C271.024 272.928 272.625 273.205 273.956 272.485C276.538 271.088 277.08 266.247 277.18 263.657C277.654 264.007 278.081 264.308 278.477 264.565C279 265.674 279.108 266.844 279.227 268.19C279.327 269.295 279.438 270.546 279.8 271.943C280.651 275.202 280.624 275.237 279.235 277.219C279.062 277.465 278.869 277.738 278.658 278.046C277.842 279.243 277.557 280.455 277.807 281.648C278.111 283.103 279.146 284.111 279.727 284.581C279.716 284.727 279.708 284.877 279.712 285.023C279.77 287.151 281.339 288.483 281.405 288.537C281.728 288.806 282.205 288.764 282.478 288.448C283.848 286.851 285.298 285.789 286.579 284.85C288.657 283.33 290.45 282.018 290.908 279.216C291.166 277.631 291.623 275.849 292.062 274.125C292.762 271.389 293.486 268.556 293.486 266.293C293.486 266.266 293.486 266.243 293.486 266.216L293.493 266.213ZM196.018 94.2456C196.741 94.311 222.873 96.9972 228.679 127.345C227.271 126.437 225.09 125.306 222.831 125.183C222.585 125.171 222.308 125.156 222 125.144C217.979 124.967 208.561 124.547 201.428 118.563C198.392 116.016 195.452 113.738 192.605 111.532C188.227 108.138 184.083 104.917 180.071 101.111C182.748 98.2674 187.631 93.9726 196.022 94.2456H196.018ZM159.594 140.911C159.594 140.911 159.586 140.922 159.586 140.926C159.052 142.25 158.582 143.535 158.163 144.79C157.466 146.71 156.851 148.457 156.297 150.031C153.442 158.12 152.011 162.181 149.749 162.181C147.486 162.181 146.055 158.12 143.2 150.031C142.646 148.457 142.027 146.706 141.33 144.786C140.911 143.531 140.445 142.25 139.911 140.926C139.911 140.918 139.903 140.914 139.903 140.911C136.525 131.921 131.538 119.872 123.578 104.748C124.659 105.267 125.775 105.471 127.018 105.471C128.599 105.471 130.38 105.148 132.554 104.755C136.421 104.055 141.719 103.097 149.752 103.097C157.786 103.097 163.08 104.055 166.947 104.755C169.121 105.148 170.902 105.471 172.483 105.471C173.726 105.471 174.842 105.267 175.923 104.748C167.962 119.872 162.976 131.921 159.598 140.911H159.594ZM173.233 223.107C168.009 221.961 161.264 222.176 156.22 225.932C152.972 228.349 150.814 231.908 149.752 236.553C148.691 231.908 146.532 228.349 143.285 225.932C138.241 222.176 131.496 221.957 126.271 223.103C128.938 219.798 128.745 215.079 128.538 210.162C128.318 204.905 128.068 198.944 130.996 193.36C139.991 176.196 144.143 165.91 143.519 155.45C145.62 161.091 147.086 163.716 149.752 163.716C152.419 163.716 153.884 161.091 155.985 155.454C155.362 165.91 159.513 176.2 168.509 193.364C171.437 198.948 171.187 204.908 170.967 210.166C170.763 215.083 170.567 219.805 173.237 223.107H173.233ZM177.562 226.151C184.237 229.226 185.719 234.641 187.827 242.368C188.381 244.393 188.95 246.486 189.67 248.737C193.186 259.724 192.879 268.352 188.754 274.379C183.86 281.533 174.965 282.814 171.367 283.033C170.929 283.06 170.49 283.091 170.055 283.118C170.048 283.118 170.04 283.118 170.032 283.118C169.982 283.122 169.925 283.126 169.871 283.13C169.651 283.145 169.432 283.157 169.217 283.172C169.067 283.184 168.921 283.191 168.77 283.203C168.624 283.211 168.486 283.218 168.339 283.226C167.708 283.257 167.051 283.287 166.404 283.353C161.252 283.638 156.581 283.518 153.723 280.848C151.564 278.831 150.518 275.456 150.518 270.526V243.965C150.518 236.088 152.746 230.438 157.136 227.168C162.326 223.303 169.559 223.534 174.592 225.043C175.392 225.282 176.13 225.547 176.823 225.832C177.062 225.944 177.304 226.051 177.562 226.155V226.151ZM133.089 283.353C132.443 283.291 131.789 283.26 131.158 283.23C131.011 283.222 130.873 283.215 130.73 283.207C130.581 283.195 130.431 283.188 130.28 283.176C130.061 283.161 129.838 283.149 129.618 283.134C129.569 283.13 129.511 283.126 129.461 283.122C129.453 283.122 129.445 283.122 129.438 283.122C128.999 283.091 128.564 283.064 128.126 283.037C124.529 282.818 115.633 281.537 110.739 274.383C106.619 268.356 106.311 259.732 109.827 248.741C110.547 246.49 111.12 244.396 111.67 242.372C113.779 234.648 115.26 229.234 121.924 226.159C122.185 226.055 122.436 225.944 122.674 225.832C123.363 225.547 124.102 225.286 124.902 225.043C129.938 223.534 137.168 223.3 142.361 227.168C146.751 230.438 148.979 236.088 148.979 243.965V270.526C148.979 275.456 147.928 278.831 145.774 280.848C142.915 283.522 138.241 283.638 133.085 283.353H133.089ZM132.142 79.2603C132.273 79.1335 132.35 78.9639 132.369 78.7833C132.573 76.5741 132.308 63.105 132.369 62.1505C132.171 57.4167 129.859 56.3125 128.755 53.6625C128.314 51.8958 127.286 50.3555 127.21 47.9208C121.469 46.8167 123.015 33.125 123.898 31.5792C126.106 31.5792 125.223 38.8667 127.21 44.8292C127.872 47.9208 128.976 53.7589 137.587 62.1505C142.885 65.463 144.564 65.1458 149.752 65.1458C154.609 65.1458 157.015 64.925 161.652 62.1505C169.821 55.8708 168.636 49.2458 170.262 44.8292C172.418 38.6157 172.695 30.8323 173.795 30.475C177.156 29.3831 173.574 47.0375 170.262 46.8167C170.483 50.35 170.392 51.7355 169.821 53.2208C168.717 56.0917 167.881 57.2233 167.351 62.1505C167.351 68.2375 167.071 78.2225 167.124 78.7833C167.139 78.9639 167.22 79.1335 167.351 79.2603C167.47 79.376 169.467 81.3383 171.448 82.897C164.261 81.7 157.328 82.0467 153.265 82.2504C152.749 82.2773 152.284 82.3007 151.869 82.3157C150.46 82.3736 149.033 82.3736 147.629 82.3157C147.213 82.2967 146.747 82.2738 146.232 82.2504C142.169 82.0467 135.232 81.7 128.045 82.897C130.026 81.3383 132.027 79.376 132.142 79.2603ZM107.715 92.8835C109.112 92.0174 111.02 90.8324 112.363 90.2167C113.228 89.8201 115.233 88.9814 117.357 88.0883C119.542 87.1727 121.916 86.1759 123.659 85.414C123.674 85.414 123.686 85.414 123.701 85.4061C132.208 83.0816 141.28 83.5396 146.151 83.7821C146.67 83.809 147.144 83.832 147.559 83.8474C149.01 83.9093 150.479 83.9093 151.93 83.8474C152.345 83.8284 152.819 83.805 153.338 83.7821C158.209 83.5361 167.281 83.0816 175.788 85.4061C175.8 85.4061 175.815 85.4061 175.827 85.41C177.566 86.1719 179.943 87.1688 182.125 88.0848C184.253 88.9774 186.261 89.8201 187.123 90.2127C188.466 90.8284 190.378 92.0139 191.774 92.8835C191.805 92.9025 191.828 92.9179 191.859 92.9374C184.329 94.0455 180.151 98.6945 177.97 101.115L177.72 101.392C174.803 104.613 172.583 104.213 167.208 103.239C163.284 102.527 157.909 101.554 149.737 101.554C141.565 101.554 136.19 102.527 132.266 103.239C126.894 104.213 124.671 104.613 121.758 101.392L121.512 101.115C119.33 98.6905 115.144 94.0495 107.619 92.9374C107.65 92.9179 107.681 92.899 107.711 92.8795L107.715 92.8835ZM103.475 94.2421C111.867 93.9492 116.749 98.2595 119.427 101.107C115.414 104.91 111.27 108.131 106.888 111.528C104.045 113.734 101.101 116.016 98.0655 118.559C90.9285 124.547 81.5138 124.963 77.4934 125.14C77.1856 125.156 76.9083 125.167 76.6623 125.179C74.4037 125.302 72.2224 126.433 70.8142 127.341C76.6199 97.0166 102.775 94.3034 103.475 94.2421ZM18.9965 278.1C19.1658 278.343 19.3543 278.612 19.5582 278.912C20.1238 279.747 20.3354 280.559 20.1777 281.325C20.043 281.975 19.6737 282.51 19.3158 282.895C18.9465 282.083 18.3617 281.286 17.5422 280.505C17.2382 279.878 15.9378 277.245 14.9528 276.049C14.7605 275.818 14.7951 275.621 15.226 274.455C15.6992 273.174 16.488 271.034 16.8419 267.367C16.9073 267.02 16.9997 266.52 17.0689 266.305C17.1112 266.297 17.1536 266.289 17.2036 266.278C17.5807 266.205 18.1501 266.093 19.035 265.685C18.8734 266.459 18.8003 267.24 18.7272 268.048C18.631 269.145 18.5271 270.276 18.1963 271.55C17.2075 275.348 17.3729 275.791 18.9927 278.096L18.9965 278.1ZM27.9034 256.723C27.6918 258 27.4725 259.32 27.7187 260.809C29.0653 267.251 29.1461 269.811 29.1192 270.596C27.9457 271.342 26.9838 271.523 26.2682 271.135C24.1021 269.965 23.7751 264.23 23.8328 262.122C23.8404 261.822 23.675 261.545 23.4057 261.413C23.1364 261.283 22.817 261.317 22.5823 261.506C19.0389 264.373 17.6076 264.65 16.9227 264.781C15.7262 265.012 15.6262 265.539 15.3299 267.163C14.9836 270.696 14.268 272.643 13.7909 273.932C13.3292 275.183 12.9983 276.087 13.7755 277.034C14.7528 278.223 16.211 281.275 16.2263 281.306C16.2687 281.394 16.3264 281.471 16.3956 281.537C17.6461 282.699 18.2655 283.853 18.2424 284.973C18.227 285.751 17.8923 286.385 17.5922 286.809C16.2956 285.435 14.9875 284.477 13.8178 283.618C11.8672 282.191 10.4552 281.156 10.0973 278.974C9.82803 277.319 9.36248 275.506 8.91233 273.747C8.23903 271.119 7.54648 268.402 7.53494 266.335C7.75809 264.234 8.85846 260.663 9.92806 257.207C11.2439 252.94 12.4905 248.91 12.5058 246.594C12.3712 241.475 12.7636 239.224 13.2869 237.942C14.3757 240.817 16.1802 242.942 18.3001 243.765C19.0465 244.054 19.8776 244.196 20.7664 244.196C22.2014 244.196 23.7827 243.819 25.3679 243.103C24.533 245.782 25.1217 246.867 25.2948 247.109C28.7806 251.446 28.3535 254.009 27.9072 256.727L27.9034 256.723ZM64.0543 187.791L63.8693 188.045C61.0724 191.89 58.7175 195.999 56.2244 200.348C52.2768 207.233 48.1949 214.353 42.1659 220.494C32.4511 230.477 28.088 236.892 26.222 240.921C23.5327 242.553 20.7856 243.08 18.8541 242.333C16.9035 241.576 15.1914 239.247 14.3372 236.215C14.545 235.911 14.7528 235.576 14.9336 235.141C15.2568 234.372 15.9339 232.263 16.9535 229.076C19.0158 222.645 22.4631 211.885 26.6029 201.087C32.8666 184.751 44.132 173.448 47.4369 170.374C47.8101 170.027 48.1371 169.681 48.4373 169.331C48.4757 170.308 48.7297 171.016 49.1952 171.501C50.3648 172.717 52.3885 172.121 54.3429 171.544C55.9361 171.074 57.7403 170.539 58.687 171.124C59.4911 171.624 59.6218 173.887 59.7371 175.884C59.9102 178.898 60.0912 182.015 62.2995 182.923C62.6691 183.077 63.0767 183.154 63.5231 183.154C64.9776 183.154 66.8587 182.33 69.2829 180.637C67.9476 182.434 66.2895 184.712 64.0503 187.795L64.0543 187.791ZM76.0583 172.559C75.2003 173.441 74.473 174.21 73.7687 174.999C66.8626 181.234 64.0349 181.976 62.8846 181.503C61.5687 180.964 61.4111 178.22 61.2724 175.8C61.1223 173.198 60.9801 170.743 59.4986 169.823C57.9673 168.873 55.9052 169.484 53.9084 170.073C52.4618 170.501 50.8228 170.985 50.2995 170.439C49.984 170.108 49.6723 169.096 50.4417 166.002C50.8727 164.924 51.1345 163.87 51.3805 162.869C51.7037 161.557 52.0114 160.318 52.6539 159.194C54.5315 155.912 57.2131 150.024 57.3248 149.773C57.3403 149.739 57.3557 149.704 57.3632 149.665C60.6529 138.151 69.9947 129.87 70.2256 129.662C70.2561 129.631 73.5113 126.891 76.7431 126.718C76.9856 126.706 77.2584 126.691 77.5587 126.679C80.2673 126.56 85.3343 126.333 90.6171 124.467C89.5397 127.522 90.5438 132.352 91.525 137.059C92.5291 141.869 93.5642 146.845 92.1904 149.065L91.9789 149.396C88.5855 154.746 79.563 168.954 76.0503 172.555L76.0583 172.559ZM107.792 202.819C107.784 202.242 107.78 201.591 107.776 200.883C107.749 194.518 107.7 182.669 102.59 174.541C97.5656 166.548 94.1453 151.74 93.664 149.577C95.1224 146.779 94.1144 141.904 93.0369 136.747C91.8443 131.021 90.6132 125.106 93.233 123.408C95.2337 122.485 97.2155 121.292 99.0621 119.741C102.074 117.213 105.002 114.942 107.838 112.745C112.24 109.331 116.41 106.091 120.473 102.242L120.573 102.354C130.815 121.373 136.444 135.765 139.987 145.559C144.751 160.025 141.473 170.062 129.638 192.644C126.521 198.593 126.779 204.774 127.006 210.223C127.276 216.692 127.487 221.853 122.058 224.419C121.797 224.527 121.543 224.639 121.297 224.751C115.86 226.917 107.911 231.689 103.868 237.331C106.253 227.233 107.884 208.499 107.8 202.811L107.792 202.819ZM107.908 491.447C107.326 496.164 107.588 498.081 107.803 499.622C107.965 500.779 108.077 501.618 107.715 503.398C106.853 507.625 106.911 514.003 107.415 518.115C107.654 520.076 107.749 523.715 105.668 526.069C104.256 527.663 102.017 528.472 99.0122 528.472C90.267 528.472 86.4885 523.194 86.3309 522.973C86.2306 522.832 86.0845 522.721 85.9193 522.673C85.038 522.408 84.1416 522.134 83.2492 521.855C80.0672 520.879 77.0664 519.952 74.9499 519.594C72.9956 519.06 71.8607 518.309 71.6607 517.43C71.4183 516.361 72.5571 515.089 73.015 514.692C73.0609 514.652 73.0993 514.608 73.1342 514.559C74.6576 512.461 76.8239 512.603 76.9123 512.607C77.1776 512.633 77.4395 512.519 77.5971 512.302C78.9205 510.518 80.3635 510.611 80.4134 510.615C80.5826 510.637 80.7561 510.593 80.9022 510.505C84.9995 507.934 89.432 501.861 89.6205 501.605C89.6899 501.512 89.7318 501.402 89.7552 501.287C89.9089 500.448 90.059 499.653 90.2091 498.867C90.7668 495.956 91.2941 493.205 91.6751 489.04C92.0059 485.374 91.0018 475.246 89.4744 459.916C88.997 455.115 88.4738 449.877 87.9315 444.197C89.2779 447.969 91.2746 450.403 94.3029 450.584C98.5313 450.84 101.175 445.381 103.302 440.996C104.129 439.295 105.26 436.963 105.764 436.801C106.341 436.851 106.615 439.556 106.78 441.173C107.199 445.306 107.773 450.972 112.393 451.935C112.913 452.046 113.417 452.099 113.913 452.099C115.598 452.099 117.153 451.463 118.588 450.195C118.461 450.54 118.334 450.897 118.203 451.273C113.221 465.711 108.854 483.695 107.9 491.433L107.908 491.447ZM122.277 441.207C118.303 451.608 114.098 450.734 112.717 450.442C109.193 449.705 108.708 444.895 108.315 441.027C108 437.905 107.749 435.439 105.907 435.281C104.429 435.15 103.444 437.217 101.932 440.334C100.105 444.096 97.6195 449.25 94.4067 449.06C88.7511 448.724 87.3544 436.905 86.7389 425.364C86.9389 413.414 89.5706 405.268 91.7829 398.441C92.133 397.548 92.6214 396.74 93.2793 396.559C94.7453 396.155 97.2693 398.618 99.497 400.788C102.905 404.109 106.769 407.873 110.089 405.399C112.351 403.713 114.975 403.309 117.111 404.325C119.519 405.468 120.996 408.285 121.166 412.048C121.181 412.418 121.458 412.714 121.812 412.772C123.72 431.125 123.582 436.974 122.281 441.207H122.277ZM123.563 387.735C121.689 389.959 120.069 391.883 119.981 396.466C119.981 396.501 119.981 396.536 119.984 396.571C120.388 400.003 120.754 403.147 121.077 406.041C120.25 404.652 119.134 403.582 117.765 402.935C115.106 401.673 111.894 402.135 109.17 404.167C106.903 405.857 103.679 402.724 100.567 399.687C97.8001 396.99 95.1838 394.442 92.8713 395.077C92.8638 395.077 92.8563 395.081 92.8484 395.085C94.0221 391.29 94.9105 387.766 94.9878 383.983C95.107 378.01 95.7994 373.192 96.4114 368.94C96.6269 367.439 96.8269 366.038 96.9845 364.714C98.6157 370.021 100.832 374.67 103.641 375.012C106.087 375.309 108.35 372.673 110.616 366.966C112.366 362.552 113.313 360.635 113.817 359.823C113.94 360.716 113.99 362.286 114.037 363.714C114.248 370.391 114.602 381.566 121.931 381.566C125.379 381.566 128.022 378.965 130.265 372.792C128.503 381.859 125.802 385.068 123.563 387.731V387.735ZM139.06 329.302C137.275 335.667 135.547 341.828 134.035 349.056C133.866 349.171 133.743 349.355 133.708 349.575C130.519 371.21 127.106 380.035 121.928 380.035C116.083 380.035 115.76 369.791 115.564 363.668C115.437 359.677 115.383 358.026 114.202 357.818C113.179 357.641 112.348 358.434 109.185 366.4C106.634 372.827 104.718 373.592 103.821 373.489C101.313 373.185 98.9738 366.873 97.2729 359.916C97.2499 358.834 97.1501 357.81 96.9382 356.825C86.7579 317.996 97.2998 265.693 101.19 254.356C103.152 248.637 103.044 247.017 102.921 245.139C102.89 244.642 102.856 244.123 102.867 243.484C103.414 238.42 109.177 233.209 115.144 229.58C112.682 232.844 111.535 237.027 110.189 241.972C109.639 243.981 109.073 246.059 108.365 248.275C104.699 259.74 105.072 268.814 109.473 275.252C114.748 282.964 124.213 284.342 128.033 284.573C128.522 284.604 129.007 284.635 129.492 284.669C129.861 284.7 130.249 284.727 130.65 284.746C131.427 284.8 132.196 284.846 132.958 284.888C134.432 285.031 135.809 285.335 136.552 286.178C137.075 286.77 137.287 287.621 137.198 288.775C136.629 296.241 138.287 299.404 139.892 302.46C141.911 306.312 143.82 309.949 140.849 322.852C140.253 325.057 139.653 327.197 139.06 329.302ZM143.881 310.692C143.697 306.408 142.461 304.053 141.249 301.74C139.68 298.746 138.195 295.914 138.729 288.887C138.849 287.317 138.506 286.062 137.706 285.158C137.652 285.096 137.591 285.039 137.533 284.981C141.207 284.873 144.458 284.18 146.825 281.968C147.271 281.548 147.675 281.083 148.04 280.571C147.817 282.776 147.648 284.781 147.479 286.755C146.905 293.524 146.401 299.435 143.881 310.688V310.692ZM152.019 286.755C151.853 284.785 151.68 282.78 151.457 280.574C151.822 281.086 152.226 281.552 152.673 281.971C155.039 284.18 158.29 284.877 161.964 284.985C161.906 285.042 161.845 285.1 161.791 285.161C160.991 286.07 160.648 287.324 160.767 288.891C161.306 295.918 159.821 298.746 158.247 301.744C157.036 304.053 155.801 306.412 155.616 310.696C153.092 299.439 152.592 293.528 152.019 286.759V286.755ZM177.689 412.772C178.039 412.714 178.316 412.422 178.335 412.048C178.504 408.281 179.982 405.468 182.391 404.325C184.522 403.313 187.146 403.713 189.408 405.399C192.732 407.873 196.591 404.109 200 400.788C202.228 398.618 204.759 396.155 206.217 396.559C206.879 396.74 207.372 397.556 207.718 398.452C209.931 405.275 212.562 413.422 212.758 425.364C212.143 436.905 210.742 448.724 205.091 449.06C205.033 449.06 204.975 449.064 204.917 449.064C201.801 449.064 199.358 444.029 197.564 440.334C196.053 437.217 195.064 435.146 193.59 435.281C191.747 435.439 191.497 437.905 191.182 441.027C190.789 444.895 190.301 449.705 186.78 450.442C185.399 450.734 181.19 451.613 177.215 441.2C175.919 436.966 175.78 431.109 177.689 412.772ZM210.015 459.903C208.488 475.246 207.479 485.383 207.811 489.044C208.188 493.213 208.714 495.956 209.273 498.867C209.423 499.653 209.576 500.452 209.731 501.291C209.75 501.406 209.796 501.512 209.865 501.605C210.054 501.866 214.486 507.939 218.583 510.509C218.722 510.597 218.903 510.637 219.064 510.624C219.126 510.615 220.569 510.527 221.892 512.307C222.05 512.519 222.312 512.633 222.573 512.611C222.665 512.607 224.832 512.461 226.355 514.564C226.39 514.612 226.428 514.656 226.474 514.696C226.932 515.094 228.075 516.37 227.829 517.434C227.629 518.313 226.49 519.064 224.609 519.581C222.419 519.961 219.415 520.884 216.233 521.864C215.344 522.138 214.447 522.416 213.566 522.677C213.401 522.726 213.255 522.836 213.154 522.973C212.997 523.194 209.219 528.472 200.474 528.472C197.469 528.472 195.233 527.663 193.817 526.069C191.74 523.719 191.832 520.08 192.071 518.115C192.574 514.007 192.632 507.634 191.77 503.398C191.409 501.618 191.524 500.784 191.682 499.626C191.893 498.085 192.159 496.168 191.578 491.451C190.624 483.713 186.257 465.72 181.275 451.286C181.144 450.911 181.017 450.553 180.89 450.213C182.325 451.48 183.879 452.112 185.561 452.112C186.057 452.112 186.565 452.059 187.08 451.953C191.701 450.981 192.279 445.319 192.698 441.188C192.863 439.572 193.136 436.866 193.671 436.813C194.217 436.978 195.349 439.31 196.176 441.011C198.303 445.394 200.943 450.849 205.175 450.601C208.203 450.42 210.2 447.982 211.546 444.215C211.004 449.881 210.484 455.111 210.007 459.907L210.015 459.903ZM203.086 368.944C203.697 373.196 204.39 378.014 204.509 383.987C204.586 387.77 205.475 391.29 206.648 395.089C206.641 395.089 206.633 395.085 206.629 395.081C204.321 394.446 201.705 396.994 198.934 399.691C195.822 402.724 192.598 405.864 190.328 404.171C187.6 402.139 184.387 401.681 181.733 402.939C180.363 403.59 179.243 404.656 178.42 406.045C178.743 403.147 179.105 400.003 179.512 396.574C179.512 396.54 179.52 396.505 179.516 396.47C179.428 391.887 177.808 389.963 175.934 387.739C173.695 385.079 170.994 381.867 169.232 372.8C171.479 378.972 174.118 381.574 177.569 381.574C184.899 381.574 185.253 370.398 185.464 363.722C185.511 362.294 185.561 360.724 185.684 359.831C186.188 360.643 187.13 362.556 188.881 366.974C191.147 372.68 193.421 375.32 195.857 375.02C198.665 374.682 200.881 370.033 202.513 364.726C202.666 366.046 202.87 367.451 203.086 368.947V368.944ZM198.303 254.36C202.193 265.697 212.731 318.003 202.547 356.864C202.34 357.837 202.239 358.857 202.22 359.931C200.523 366.885 198.184 373.188 195.675 373.493C194.768 373.604 192.863 372.831 190.312 366.404C187.15 358.43 186.311 357.649 185.295 357.822C184.11 358.03 184.06 359.681 183.933 363.672C183.741 369.794 183.414 380.038 177.569 380.038C172.391 380.038 168.974 371.214 165.789 349.579C165.758 349.359 165.631 349.179 165.461 349.06C163.953 341.828 162.222 335.667 160.437 329.302C159.844 327.193 159.244 325.05 158.644 322.844C155.678 309.949 157.586 306.312 159.606 302.46C161.21 299.404 162.868 296.245 162.299 288.775C162.21 287.621 162.422 286.77 162.945 286.178C163.688 285.335 165.065 285.031 166.539 284.888C167.3 284.846 168.074 284.796 168.851 284.742C169.247 284.723 169.632 284.7 170.001 284.665C170.49 284.635 170.975 284.6 171.467 284.569C175.292 284.334 184.752 282.961 190.027 275.248C194.429 268.81 194.802 259.736 191.136 248.272C190.427 246.055 189.858 243.977 189.312 241.968C187.961 237.023 186.819 232.84 184.352 229.576C190.324 233.206 196.087 238.424 196.63 243.488C196.641 244.123 196.607 244.642 196.576 245.139C196.453 247.017 196.349 248.637 198.307 254.356L198.303 254.36ZM196.907 174.549C191.797 182.677 191.747 194.526 191.72 200.891C191.72 201.599 191.713 202.249 191.705 202.826C191.617 208.515 193.252 227.252 195.637 237.346C191.59 231.701 183.637 226.929 178.2 224.762C177.958 224.65 177.708 224.543 177.45 224.435C172.018 221.868 172.229 216.707 172.499 210.234C172.726 204.782 172.983 198.605 169.867 192.655C158.032 170.073 154.754 160.037 159.517 145.571C163.061 135.777 168.69 121.384 178.931 102.366L179.032 102.254C183.094 106.103 187.261 109.339 191.666 112.752C194.498 114.95 197.43 117.22 200.443 119.749C202.289 121.295 204.267 122.489 206.268 123.416C208.888 125.109 207.657 131.028 206.464 136.754C205.39 141.911 204.379 146.787 205.837 149.585C205.356 151.747 201.936 166.556 196.911 174.549H196.907ZM207.506 149.408L207.295 149.077C205.922 146.856 206.96 141.88 207.961 137.07C208.941 132.364 209.946 127.534 208.869 124.478C214.151 126.345 219.218 126.572 221.927 126.691C222.231 126.706 222.504 126.718 222.743 126.73C225.955 126.903 229.214 129.635 229.26 129.673C229.433 129.824 238.825 138.109 242.126 149.677C242.138 149.712 242.149 149.75 242.164 149.785C242.276 150.035 244.958 155.923 246.835 159.205C247.478 160.33 247.782 161.568 248.109 162.881C248.355 163.877 248.617 164.932 249.048 166.009C249.817 169.104 249.506 170.116 249.19 170.447C248.667 170.989 247.027 170.508 245.581 170.081C243.584 169.492 241.522 168.88 239.991 169.831C238.509 170.751 238.367 173.206 238.217 175.807C238.078 178.228 237.921 180.972 236.605 181.511C235.45 181.984 232.623 181.237 225.721 175.011C225.016 174.218 224.289 173.448 223.431 172.567C219.918 168.965 210.896 154.757 207.503 149.408H207.506ZM243.272 200.356C240.779 196.007 238.425 191.897 235.628 188.053L235.424 187.772C233.196 184.709 231.545 182.434 230.21 180.645C232.634 182.342 234.516 183.162 235.97 183.162C236.416 183.162 236.824 183.085 237.193 182.931C239.402 182.023 239.583 178.905 239.756 175.892C239.871 173.895 240.002 171.632 240.806 171.131C241.753 170.547 243.557 171.078 245.15 171.551C247.105 172.128 249.128 172.725 250.298 171.509C250.768 171.024 251.017 170.316 251.056 169.338C251.356 169.689 251.687 170.035 252.056 170.381C255.361 173.456 266.626 184.755 272.89 201.095C277.03 211.897 280.481 222.661 282.543 229.095C283.563 232.278 284.236 234.379 284.56 235.149C284.74 235.583 284.948 235.918 285.156 236.223C284.298 239.255 282.586 241.583 280.635 242.337C278.7 243.084 275.961 242.557 273.275 240.929C271.409 236.904 267.046 230.484 257.323 220.494C251.294 214.353 247.212 207.237 243.269 200.352L243.272 200.356ZM279.316 281.333C279.158 280.567 279.366 279.755 279.935 278.92C280.139 278.619 280.327 278.35 280.497 278.108C282.113 275.803 282.282 275.364 281.289 271.562C280.958 270.288 280.855 269.156 280.758 268.06C280.685 267.251 280.612 266.467 280.45 265.693C281.335 266.101 281.905 266.213 282.282 266.285C282.332 266.297 282.378 266.301 282.42 266.312C282.49 266.528 282.582 267.02 282.636 267.313C283.001 271.042 283.79 273.186 284.263 274.463C284.694 275.629 284.725 275.822 284.536 276.056C283.552 277.253 282.251 279.886 281.947 280.513C281.131 281.29 280.543 282.091 280.174 282.903C279.815 282.514 279.446 281.979 279.312 281.333H279.316ZM290.585 273.751C290.134 275.506 289.673 277.323 289.4 278.974C289.042 281.156 287.634 282.187 285.679 283.615C284.509 284.473 283.201 285.431 281.905 286.805C281.605 286.385 281.274 285.754 281.255 284.988C281.224 283.869 281.843 282.706 283.101 281.537C283.174 281.471 283.228 281.39 283.271 281.306C283.286 281.275 284.74 278.223 285.721 277.034C286.499 276.087 286.168 275.187 285.706 273.936C285.233 272.647 284.513 270.7 284.16 267.101C283.871 265.539 283.775 265.012 282.578 264.781C281.89 264.65 280.462 264.373 276.918 261.506C276.688 261.317 276.365 261.283 276.095 261.413C275.826 261.545 275.66 261.822 275.668 262.122C275.726 264.23 275.395 269.965 273.233 271.135C272.513 271.523 271.555 271.342 270.382 270.6C270.355 269.799 270.439 267.228 271.786 260.779C272.024 259.324 271.805 258 271.594 256.723C271.144 254.009 270.72 251.446 274.233 247.071C274.394 246.844 274.972 245.77 274.14 243.107C275.722 243.823 277.299 244.196 278.731 244.196C279.619 244.196 280.45 244.054 281.197 243.765C283.317 242.946 285.117 240.817 286.206 237.942C286.734 239.224 287.126 241.479 286.987 246.617C287.003 248.91 288.245 252.94 289.565 257.203C290.631 260.66 291.735 264.23 291.958 266.332C291.951 268.398 291.254 271.115 290.581 273.743L290.585 273.751Z" fill="#0D173D"/>
</g>
<defs>
<clipPath id="clip0_1672_36741">
<rect width="287.901" height="530" fill="white" transform="translate(6)"/>
</clipPath>
</defs>
</svg>
